<?xml version="1.0" encoding="UTF-8" standalone="no"?>
<!-- Uploaded to: SVG Repo, www.svgrepo.com, Generator: SVG Repo Mixer Tools -->

<svg
   fill="#000000"
   height="800px"
   width="800px"
   version="1.1"
   id="Layer_1"
   viewBox="0 0 512.001 512.001"
   xml:space="preserve"
   sodipodi:docname="logo.svg"
   inkscape:version="1.3 (0e150ed6c4, 2023-07-21)"
   xmlns:inkscape="http://www.inkscape.org/namespaces/inkscape"
   xmlns:sodipodi="http://sodipodi.sourceforge.net/DTD/sodipodi-0.dtd"
   xmlns:xlink="http://www.w3.org/1999/xlink"
   xmlns="http://www.w3.org/2000/svg"
   xmlns:svg="http://www.w3.org/2000/svg"><defs
   id="defs8"><linearGradient
     id="swatch8"
     inkscape:swatch="solid"><stop
       style="stop-color:#000000;stop-opacity:1;"
       offset="0"
       id="stop8" /></linearGradient><linearGradient
     inkscape:collect="always"
     xlink:href="#swatch8"
     id="linearGradient8"
     x1="0"
     y1="256.00099"
     x2="512.005"
     y2="256.00099"
     gradientUnits="userSpaceOnUse" /></defs><sodipodi:namedview
   id="namedview8"
   pagecolor="#ffffff"
   bordercolor="#000000"
   borderopacity="0.25"
   inkscape:showpageshadow="2"
   inkscape:pageopacity="0.0"
   inkscape:pagecheckerboard="0"
   inkscape:deskcolor="#d1d1d1"
   inkscape:zoom="0.3775"
   inkscape:cx="400"
   inkscape:cy="400"
   inkscape:window-width="779"
   inkscape:window-height="846"
   inkscape:window-x="805"
   inkscape:window-y="38"
   inkscape:window-maximized="1"
   inkscape:current-layer="Layer_1" />&#10;<path
   style="fill:#da70d6;fill-opacity:1;stroke:#da70d6;stroke-width:1.728"
   id="path9"
   d="m 146.90738,389.78264 c 3.27031,2.7242 -0.12334,3.35487 -2.55398,4.09124 -5.87046,1.36035 -11.77616,1.75885 -17.41702,-0.5653 -0.58717,-0.2744 -1.20629,-0.48886 -1.76151,-0.82322 -0.48258,-0.29063 -0.86085,-0.73139 -1.3322,-1.0399 -2.0063,-1.31321 -4.27051,-1.92394 -6.24881,-3.27885 -3.23589,-0.97845 -6.19054,-3.89325 -9.64519,-4.19718 -0.74293,-0.0653 -1.48559,0.13372 -2.22838,0.20058 -2.53692,0.64423 -5.69746,1.16619 -7.643791,3.13298 -0.98013,0.99043 -2.221125,3.16896 -2.92919,4.32236 -1.204092,2.59469 -2.632792,5.0927 -3.779937,7.71446 -0.759233,1.73521 -1.190722,3.59239 -2.3302,5.12239 -6.433119,-21.0069 -0.08975,0.0558 57.558408,28.73177 0.26661,0.13261 -0.40922,-0.44448 -0.53864,-0.71266 -0.57195,-1.1851 -0.78624,-2.39503 -1.43853,-3.57167 -2.38428,-1.97883 -3.42167,-4.29408 -3.94333,-7.30247 -0.46994,-4.08673 -0.43145,-8.20064 -0.41998,-12.30715 0.19335,-4.46614 -0.10416,-8.93001 -0.25577,-13.3929 0.20539,-5.70163 -0.18671,-11.39384 -0.13156,-17.09415 0.21357,-4.68251 0.29035,-9.36816 0.43656,-14.0532 0.005,-3.82459 0.0151,-7.64801 0.0917,-11.47363 0.1832,-3.31393 0.22493,-6.53273 -0.3472,-9.80514 -0.83016,-4.05047 -3.06692,-7.07062 -5.57477,-10.21166 -2.57557,-3.36845 -5.84969,-6.09905 -8.64644,-9.2722 -2.32491,-3.03838 -4.1874,-6.47354 -5.76749,-9.96012 -1.44817,-2.80922 -2.5505,-5.73666 -3.09895,-8.84775 -0.58789,-3.63497 -0.53928,-7.3505 -0.57122,-11.02527 -0.42171,-4.69443 -0.91248,-9.38657 -1.35433,-14.08333 -0.22495,-4.60558 -0.37623,-9.21383 -0.55179,-13.82203 -0.22646,-5.38027 -0.0104,-10.76268 0.0813,-16.14283 0.1312,-4.00743 0.33632,-7.99253 0.1584,-11.99965 -0.005,-0.52412 -0.0651,-3.36505 0.042,-3.99371 0.0912,-0.53532 0.24632,-1.07389 0.51602,-1.54521 0.12371,-0.21618 0.83463,-0.31419 0.61283,-0.42752 -59.556475,-30.42906 -72.610609,-43.48686 -56.024149,-27.24433 0.09287,1.34641 0.306149,2.6899 0.278619,4.03923 -0.04303,2.10897 -0.896162,8.23769 -1.120202,10.20889 -0.686618,6.04115 -1.102483,12.08425 -1.461772,18.15195 -0.986988,10.06576 -1.313086,20.15708 -1.72938,30.25111 0.03537,6.31421 -0.685085,12.60345 -0.821024,18.9072 -0.417878,4.84087 0.305498,9.3739 2.377122,13.74768 2.405576,4.48067 6.217212,7.78608 10.207576,10.80498 18.893567,13.22511 37.54563,30.43011 60.46646,33.8873 2.38198,0.35927 4.85122,0.42128 7.25343,0.56209 0.73555,0.13694 1.46287,0.32981 2.20667,0.4108 0.90149,0.0981 1.82162,-0.0147 2.71756,0.12534 5.28225,0.82565 11.27006,3.20398 16.33292,4.96593 1.39486,0.42609 2.77376,0.90843 4.18457,1.27826 6.39261,1.67581 2.00309,0.12553 8.25369,1.9388 3.46307,1.00462 6.89749,2.25109 10.28599,3.48193 8.94221,3.16108 17.90584,6.25864 26.91542,9.22278 6.87392,2.66533 14.00475,3.40206 21.29429,3.61259 6.54704,0.0623 13.09361,-0.0324 19.63495,-0.30487 9.11918,-0.43983 18.29147,-0.38047 27.36795,-1.46034 6.27889,-0.42591 12.37569,-1.73392 18.28845,-3.85571 8.71597,-4.66008 17.45963,-9.38759 25.84867,-14.63123 5.70604,-3.1657 10.42906,-7.66299 15.51708,-11.66703 2.75746,-2.16999 5.1931,-3.85415 8.04275,-5.88287 9.09718,-6.16414 16.6236,-14.21119 24.40822,-21.88548 1.72409,-1.78434 5.11656,-5.04469 6.41157,-7.30908 3.19737,-5.5908 4.33248,-15.17234 5.35978,-21.54726 1.56823,-5.18795 2.38915,-17.1478 6.55919,-20.89935 0.33908,-0.30506 0.88983,-0.20085 1.33476,-0.30128 0.31511,0.29587 0.85659,0.46458 0.94534,0.88763 0.19052,0.90809 0.64222,3.21498 -0.17632,2.77802 -17.97441,-9.59538 -34.86809,-21.10942 -52.68368,-30.99655 -0.86055,-0.47758 1.09468,1.65285 1.45772,2.56764 0.9812,2.47239 1.27661,5.32893 1.6903,7.91393 0.92344,8.807 0.66241,17.65928 1.43543,26.48861 0.33063,1.62645 1.10675,6.86329 2.76962,7.87182 20.8101,12.62138 37.47539,35.23409 61.11201,32.28612 4.35378,-0.17988 8.38029,-1.69558 12.62809,-2.41489 2.84776,-0.65265 5.82402,-0.24759 8.68966,-0.59335 1.32863,-0.16031 2.61804,-0.55773 3.93325,-0.80509 0.8147,-0.24445 1.61973,-0.52376 2.44408,-0.73334 2.6355,-0.67005 2.96265,-0.43833 5.63235,-1.41365 3.23536,-1.18198 6.23668,-2.95239 9.20322,-4.67148 4.90344,-2.58809 8.17405,-6.81828 11.34747,-11.20462 3.4266,-4.52826 7.51003,-8.4976 10.98868,-12.97665 2.78773,-3.59803 4.91048,-7.52506 6.73386,-11.66612 2.48306,-4.04916 4.95451,-8.1082 6.92006,-12.44059 1.27452,-4.32294 2.75709,-8.54664 4.56816,-12.68146 1.96923,-5.03107 2.9851,-10.36057 3.77416,-15.68493 0.31499,-3.66128 0.82777,-7.28721 1.21239,-10.9419 0.099,-4.71204 1.79666,-9.1783 3.16149,-13.63639 0.28721,-0.33718 1.06352,-3.23468 0.53455,-0.51452 -0.39459,2.02913 0.71698,0.65069 1.66114,-0.0285 0.31419,0.005 1.44602,-0.11896 1.59807,0.45226 0.15826,0.59446 0.40157,2.13841 -0.13662,1.84045 -18.1211,-10.03272 -35.59996,-21.18615 -53.53156,-31.55378 -0.54955,-0.31773 0.97177,0.84068 1.32412,1.36869 0.43832,0.65684 0.678,1.42638 1.017,2.13957 1.20069,4.92495 2.46253,9.84761 3.51246,14.80919 0.65508,2.64702 0.95614,5.3337 1.16318,8.0438 -0.24075,4.63195 -3.56432,8.6001 -6.74113,11.70665 -2.36272,2.10831 -4.96846,2.29175 -7.94782,2.14729 -1.34693,0.10052 -2.19818,-0.34543 -3.20371,-1.14951 18.19098,10.22226 36.48356,20.26578 54.57295,30.66677 0.37687,0.21669 -0.93522,0.19268 -1.30361,-0.0382 -0.5463,-0.34228 -0.7935,-1.01626 -1.19025,-1.52439 -1.98726,-5.8505 -1.95955,-12.09923 -2.41046,-18.18642 -0.2855,-3.85432 -0.88286,-8.9294 -1.30976,-12.78026 -1.21257,-10.01011 -3.45379,-19.7319 -7.68429,-28.89482 -3.15757,-5.79985 -6.94956,-11.19083 -9.83594,-17.14814 -2.51486,-5.23763 -3.4619,-10.97624 -5.02634,-16.51966 -1.0045,-3.15408 -1.57618,-6.4112 -2.47571,-9.59131 -0.93067,-2.91319 -1.40132,-5.85036 -1.17368,-8.89953 0.68182,-4.51229 2.94018,-8.45808 4.71261,-12.59266 0.17396,-0.39429 1.49789,-3.40717 1.70969,-3.84059 0.22856,-0.46772 0.45946,-0.93721 0.74426,-1.37296 0.15439,-0.23623 0.28356,-0.61133 0.56512,-0.63041 0.1967,-0.0133 0.2445,0.677 0.0689,0.58744 -19.05602,-9.716894 -37.96191,-19.725458 -56.94287,-29.588184 0.69817,-0.418183 0.71718,-0.727125 0.86594,0.190599 0.3392,2.092676 -1.31277,3.459718 -2.57805,4.88678 -5.27875,5.934041 -11.73322,10.593218 -17.44757,16.048691 -6.0106,4.980854 -10.82061,11.000534 -15.36957,17.287234 -4.26562,6.2249 -9.97154,11.091 -15.87852,15.67949 -5.87392,4.94048 -12.32509,8.97944 -19.05104,12.63334 -8.43878,3.42749 -17.17462,6.09153 -25.85518,8.85956 -11.24833,3.83122 -23.1054,4.98125 -34.71882,7.12132 -10.1055,3.02556 -20.48379,5.00628 -30.95297,6.20926 -10.16357,1.34602 -20.05168,4.14382 -30.1246,5.96775 -8.67775,1.01175 -17.37686,1.70999 -26.07145,2.59335 -5.22219,0.69511 -9.07131,1.04524 -12.59275,5.4098 -0.99848,1.23755 -1.97745,2.52946 -2.63175,3.97873 -0.83735,1.85471 -1.19893,3.88933 -1.79839,5.834 0.346,3.30059 0.43455,6.63842 1.038,9.90177 1.22848,6.64331 4.20039,15.41945 6.47564,21.72621 3.23263,8.96049 7.00787,17.65383 11.03277,26.27799 5.32679,11.36815 14.74723,18.86873 24.68325,25.93942 8.50115,6.28324 11.06882,16.2628 13.87549,25.91156 3.06625,12.70021 7.12896,25.12545 10.48976,37.74672 1.68753,6.47947 3.0624,13.14961 5.91104,19.24198 0.33053,0.53712 1.86524,3.22208 2.54513,3.62587 18.53119,11.00589 37.24139,21.70877 55.96117,32.39074 0.52894,0.30183 1.21553,0.23902 1.74589,0.53836 0.49333,0.27843 1.74052,1.43421 1.24929,1.15211 -17.74279,-10.18949 -35.35976,-20.5965 -53.03965,-30.89474 4.39226,1.90019 4.13631,6.9477 3.78739,10.98555 -1.25802,5.93943 -3.25573,12.00332 -8.51077,15.51065 -4.61634,1.64789 -9.35539,2.96946 -14.17986,3.85477 -21.61859,-1.62333 -66.09862,-40.04473 50.37128,36.85486 0.58594,0.38687 1.26983,-0.6182 1.94695,-0.80396 2.40381,-0.65947 4.89246,-0.95787 7.33319,-1.4639 8.53888,-1.30973 17.16255,-1.63841 25.73905,-2.61741 7.6514,-1.58761 15.2131,-3.55224 22.82052,-5.34097 5.51487,-1.22052 11.10594,-1.79416 16.62919,-2.91233 5.07667,-1.4943 9.52054,-4.4479 13.8459,-7.40665 26.4082,-20.50561 -23.42601,-27.34282 -48.99057,-42.03488 -5.48236,3.99809 -12.14652,6.15922 -18.37586,8.7539 -8.33604,3.95174 -16.9335,7.43367 -25.72207,10.24654 -7.19337,3.737 -14.86029,6.20921 -22.58452,8.53679 -4.61248,1.75635 -8.9721,4.05594 -13.90066,4.78348 -2.8028,-0.25312 -5.22043,-1.50781 -7.4411,-3.17112 -0.57422,-0.43009 -2.28934,-1.71819 -1.66668,-1.36181 17.62101,10.08515 35.12419,20.37479 52.68628,30.56219 -0.43411,-0.17002 -1.68082,-0.6028 -2.04234,-0.95855 -1.61742,-1.59159 -1.43747,-5.51201 -1.67514,-7.48267 -0.18814,-0.50898 -0.88461,-6.10817 -1.53394,-5.83 0,0 -56.75628,-30.03122 -56.75628,-30.03122 v 0 c -0.1981,0.81033 -0.57652,1.59698 -0.59429,2.43098 -0.0433,2.03434 1.71066,3.90423 2.30111,5.73702 0.14875,0.66821 0.4007,1.32158 0.44625,2.00463 0.23573,3.53459 -1.18858,7.27308 0.78793,10.56676 18.53779,10.93559 37.01052,21.98223 55.61338,32.80677 3.54543,2.06301 8.4002,1.58569 12.15918,0.69793 4.56354,-1.63954 8.67574,-4.29804 13.29367,-5.82781 7.28347,-3.00271 14.39237,-6.4325 21.80232,-9.10568 8.58626,-3.43214 16.96539,-7.35432 25.66886,-10.47596 4.37906,-1.59252 13.78354,-5.5 18.27824,-5.38063 0.45722,0.0122 0.8386,0.3654 1.2579,0.54811 -18.1801,-10.78671 -36.72339,-20.98354 -54.54031,-32.36012 -0.6008,-0.38363 0.92967,-1.11836 1.54445,-1.47917 1.52792,-0.89675 -2.30344,4.84018 -2.94537,3.88416 -3.99348,2.5053 -8.22444,4.58838 -12.95543,5.21451 -5.10648,1.18456 -10.15648,2.55629 -15.18188,4.05298 -7.51733,1.7879 -15.11093,3.3956 -22.73799,4.5887 -8.36296,1.14432 -16.75348,2.10973 -25.1409,3.05251 -1.63098,0.092 -6.86355,0.42173 -8.70871,0.40503 -1.08717,-0.01 -4.11668,-0.86627 -3.25535,-0.20283 77.38068,59.6022 31.49904,45.18379 54.13459,36.34323 5.42806,-1.70334 11.2543,-2.91727 15.76127,-6.57198 4.85846,-5.41688 7.55871,-12.51964 9.95779,-19.3002 1.57784,-5.52701 2.5412,-10.93122 0.41441,-16.47727 -18.53765,-11.00332 -37.00929,-22.11858 -55.61293,-33.00995 -0.52907,-0.30975 -1.186,-0.32698 -1.74813,-0.5717 -0.48691,-0.21197 -1.8414,-1.05898 -1.38275,-0.79129 17.55937,10.24818 35.18214,20.38833 52.68493,30.73284 1.20057,0.70956 -5.37324,-2.16217 -3.74311,-1.86888 -5.19175,-4.95239 -6.47087,-12.25679 -9.08807,-18.68737 -4.75517,-12.30463 -9.31205,-24.73615 -11.68835,-37.75906 -1.88311,-10.3289 -3.08316,-21.0366 -10.61668,-29.01245 -6.71536,-5.35241 -0.87824,-0.99268 -8.59805,-5.87803 -8.03504,-5.08483 -15.41564,-10.97989 -20.52971,-19.14727 -8.10219,-13.66753 -17.04248,-29.30921 -18.25051,-45.50114 -0.16077,-2.15488 0.26619,-4.31354 0.39928,-6.47031 0.5989,-1.23853 1.02914,-2.57388 1.79669,-3.71558 2.77705,-4.13078 8.42578,-4.32805 12.83209,-5.06774 8.2997,-1.03083 16.51427,-2.62766 24.76635,-3.97424 0.16927,-0.029 10.84581,-1.85713 11.12399,-1.91257 6.38759,-1.27284 12.67407,-3.03827 19.17745,-3.72076 10.52776,-1.89567 21.06679,-3.65007 31.45768,-6.22187 11.4691,-2.42809 22.7338,-5.81219 34.25504,-8.0434 9.50661,-2.40693 19.20816,-4.59174 27.97609,-9.12883 6.92821,-3.94863 13.81316,-8.13257 19.72528,-13.52564 6.0015,-5.23943 12.61086,-9.95573 16.82448,-16.87947 4.39443,-5.82574 8.99648,-11.51809 14.3467,-16.5062 6.09639,-5.31424 12.23382,-10.58593 18.70138,-15.44928 3.63479,-3.11426 6.26448,-6.50291 7.24494,-11.2673 -70.82475,-37.833932 -49.85961,-49.509907 -60.2386,-22.646325 -1.67686,4.570589 -4.39883,8.737707 -5.3627,13.568174 -1.06532,3.655559 -1.65551,7.367761 -0.81331,11.143311 0.887,3.51768 2.19466,6.92209 3.24231,10.39614 0.63333,1.63519 1.36199,3.23531 1.9211,4.89734 1.39719,4.15327 1.6566,8.64833 3.7249,12.59406 2.6042,6.24839 5.5147,12.32908 9.61868,17.75602 5.87542,8.30023 9.75757,17.52428 10.9096,27.7148 0.28318,2.00453 0.66098,3.99795 0.84953,6.01358 0.74249,7.93708 -0.23499,15.89022 -0.70551,23.8092 -0.13623,1.51128 -0.51779,5.05068 -0.2444,5.21781 45.92017,28.07224 36.15769,35.90637 60.61293,31.25855 3.93063,-1.11757 7.07511,-3.33984 9.57645,-6.60601 1.79213,-2.45059 3.46174,-4.97786 5.22128,-7.45176 0.55219,-0.77637 3.16466,-4.31421 3.63346,-5.16191 0.34471,-0.62329 0.50865,-1.33062 0.76296,-1.99592 0.59399,-3.40395 0.0957,-6.9356 -0.76607,-10.26514 -1.49075,-4.96848 -3.46026,-9.84314 -3.86472,-15.05911 -0.11766,-1.06924 -0.56764,-5.18829 -0.58361,-5.19878 -57.28902,-37.64797 -36.04688,-42.50169 -59.9711,-31.93371 -3.23793,-0.0907 -4.72566,3.42789 -4.76235,6.26823 -0.62898,4.85037 -1.93041,9.53169 -3.30558,14.21719 -0.53852,3.73479 -1.5541,7.41634 -1.2421,11.20546 -0.0829,4.79436 -0.48261,9.61602 -2.35305,14.0921 -1.82794,4.16612 -4.40378,8.07874 -5.23987,12.61764 -1.34702,4.33931 -3.7316,8.13568 -6.3073,11.85545 -2.24316,3.53933 -3.43595,7.57798 -5.8619,11.03217 -3.41228,4.50283 -7.38368,8.48185 -10.99958,12.81702 -2.99726,3.39155 -5.71942,7.10568 -9.74452,9.3813 -5.20025,2.82892 -10.82178,4.05112 -16.72367,4.41202 -4.1665,0.46479 -8.34599,0.82593 -12.45669,1.70762 -3.89736,0.68888 -7.89045,1.47429 -11.85674,1.06358 -18.48076,-6.51831 -60.20797,-52.19548 48.40573,28.84058 0.64459,0.38714 -1.50596,-0.25795 -2.17318,-0.60462 -1.7863,-0.92815 -2.33552,-2.18523 -3.44762,-3.78865 -2.65751,-8.49016 -2.38221,-17.42286 -2.40346,-26.24314 -0.0166,-0.74112 -0.29627,-11.80063 -0.35751,-11.8436 -18.00362,-12.63232 -40.71301,-49.10271 -59.6318,-31.7502 -0.59248,0.91499 -1.32154,1.75481 -1.77744,2.74496 -0.78905,1.71371 -1.64062,6.03466 -2.00322,7.66926 -1.15749,5.21805 -2.42626,10.41992 -3.19965,15.71374 -1.88971,9.66416 -3.37105,18.08888 -10.0307,25.7948 -1.21755,1.35813 -2.36183,2.7857 -3.65264,4.0744 -6.31797,6.30763 -13.96831,11.04468 -20.92608,16.57533 -7.47657,6.05275 -15.29142,11.63963 -23.14256,17.19265 -8.26845,5.26598 -16.67418,10.34446 -26.44044,12.26377 -5.60586,1.39244 -11.29107,2.43057 -16.98543,3.38986 -8.93404,0.97742 -17.91571,1.56516 -26.90358,0.95546 -6.72177,-0.20909 -13.45021,-0.15164 -20.16551,-0.53579 -6.39561,-0.53561 -12.66037,-1.78979 -18.79593,-3.70329 -9.57748,-3.01623 -18.78632,-6.95857 -28.25107,-10.28483 -7.24791,-2.09025 -14.64841,-3.60375 -21.81267,-5.98728 -7.77085,-2.35216 -15.590341,-4.86063 -23.692315,-5.74605 -2.233303,-0.37178 -4.308072,-0.78817 -6.378502,-1.75186 -0.641332,-0.29851 -2.482302,-1.35771 -1.869789,-1.00381 52.142056,30.12655 70.343966,38.47386 49.929866,29.02342 -3.91725,-2.34141 -7.88451,-4.83128 -10.953,-8.24534 -2.66419,-3.202 -4.40741,-6.35435 -4.08683,-10.6857 -0.16661,-6.56541 -0.90713,-13.11466 -0.83487,-19.69246 -0.28412,-10.22058 -0.31181,-20.46948 0.0129,-30.68887 0.8899,-10.44474 1.80509,-21.15497 5.63505,-31.00046 10.20902,-23.09858 3.12911,-4.05409 -56.374493,-32.90965 -0.431108,-0.20906 -0.03159,0.96119 -0.11735,1.43257 -0.433697,2.38391 -1.622144,4.62959 -1.294437,7.11238 -0.189828,4.05682 0.03919,8.09392 0.148655,12.15181 0.08301,5.41783 0.284754,10.83743 0.07802,16.25537 -0.147521,4.67651 -0.270673,9.3529 0.05799,14.02638 0.196579,4.54396 0.85819,9.05518 1.326558,13.57642 -0.04477,3.83497 -0.08248,7.66841 -0.113913,11.50405 0.24656,3.82443 0.843477,7.54188 2.630112,10.99251 1.817017,3.52361 3.241929,7.26418 5.006866,10.80129 2.293656,3.81408 5.404344,6.93891 8.8366,9.75892 0.832911,1.02233 1.557405,2.1328 2.427474,3.1237 1.375561,1.56661 3.190438,2.44766 3.557178,4.73055 1.473865,2.51304 1.544086,5.25888 1.475606,8.12695 0.07573,3.85685 0.0867,7.71149 0.09192,11.56731 0.146343,4.83306 0.225466,9.66673 0.436545,14.49746 0.05338,5.6512 -0.339316,11.29368 -0.143853,16.94645 -0.164135,4.37182 -0.484027,8.74317 -0.304839,13.11963 0.01715,4.28652 0.02445,8.5744 0.168672,12.85814 0.09857,3.5219 -0.3389,7.20313 1.57976,10.35161 0.536065,0.39135 1.719952,0.93099 1.989553,1.5976 0.102784,0.25413 -0.185773,0.69234 0.05658,0.82045 58.193946,30.75984 55.465416,51.45938 58.115476,28.94891 -0.31563,-4.18198 1.42692,-7.79796 3.82089,-11.15574 2.18561,-2.11747 4.03289,-2.54602 6.99408,-1.53048 3.40366,1.95098 7.02306,3.46847 10.41225,5.44763 3.42142,1.47037 6.57454,3.60513 10.43117,3.62581 6.48461,0.0138 13.09582,-0.84227 19.29419,-2.72973 5.46936,-2.75557 8.96698,-5.92399 9.09811,-12.38386 z" /><path
   style="fill:#da70d6;fill-opacity:1;stroke:#da70d6;stroke-width:1.6164"
   id="path8"
   d="m 125.86785,213.70994 c 3.53568,-4.65926 7.64185,-8.86886 11.81,-12.94733 5.05916,-5.55394 10.93813,-10.32147 17.51336,-13.89202 8.66066,-4.20028 18.18505,-6.15994 27.55058,-8.05287 8.73872,-2.34522 17.60127,-3.85279 26.59467,-4.6866 8.94677,-0.66496 17.89678,-1.0499 26.86846,-0.95692 9.64589,0.24398 19.19794,1.99109 28.84877,1.70559 8.23379,0.12969 16.40011,1.28307 24.58648,2.06693 6.53635,-0.0462 13.05503,-0.1554 19.59468,0.0613 5.20911,0.0362 10.57905,-0.51651 15.54846,-2.1703 4.93431,-1.07063 9.80285,-1.59159 14.47327,-3.64203 4.95772,-2.59423 9.70417,-5.57981 14.50714,-8.45635 0.51618,-0.37458 1.07656,-0.69362 1.54857,-1.12372 15.32904,-13.96756 -38.82242,-28.42277 -50.39375,-34.38253 -0.61011,-0.31424 -1.09761,0.83654 -1.69901,1.16749 -0.58086,0.31963 -1.22,0.51635 -1.82999,0.7745 -4.64154,2.79459 -8.73643,6.97478 -14.41333,7.08765 -0.49643,-0.19468 -1.01535,-0.33858 -1.48927,-0.58403 -1.66601,-0.86284 -2.56217,-2.22338 -2.16577,-1.99743 16.75885,9.5522 33.3835,19.34411 50.00315,29.14205 0.53739,0.31683 -1.19981,-0.41762 -1.68453,-0.81191 -0.30452,-0.45974 -0.92582,-1.32186 -1.03317,-1.84829 -0.50866,-2.49443 0.20616,-6.34129 0.58487,-8.81874 0.71407,-4.02479 1.61384,-8.01916 2.1232,-12.07808 0.46139,-3.15771 0.15806,-6.32 0.0503,-9.48701 0.0478,-5.58071 0.63237,-11.01159 1.86648,-16.44117 0.79196,-4.08854 2.19218,-7.97748 3.51388,-11.90423 0.8631,-2.201367 2.09956,-4.394063 4.52918,-4.92334 1.41979,0.225805 4.13383,-0.37573 5.38959,0.04955 0.45495,0.154066 0.79009,0.550791 1.18514,0.826184 1.8474,0.821685 3.78889,0.984001 5.63217,1.842348 1.5404,0.717302 2.27764,1.273168 3.69481,2.201558 -15.98724,-9.284394 -31.97449,-18.568777 -47.96173,-27.853166 4.95883,2.482455 8.87896,6.132422 12.33484,10.424967 1.98774,3.391506 4.41054,7.675964 3.77246,11.825872 -0.14478,0.941628 -0.52604,1.83011 -0.78906,2.745159 -3.80741,7.795978 -11.46002,12.000178 -18.40434,16.517808 -0.23039,0.85442 -7.11591,3.52019 -7.7456,4.26343 -0.82972,0.97934 -2.93438,2.6753 -1.86536,3.37817 50.76935,33.38036 37.76455,43.42087 55.3915,27.86651 9.66282,-5.61554 20.48637,-8.48914 31.20069,-11.24784 0.85597,-0.37323 1.87861,-0.48495 2.56791,-1.11968 0.4712,-0.43388 3.74743,-5.16314 1.93918,-6.34722 -2.08441,-1.36493 -133.2675,-77.990522 -5.09432,-3.02982 -3.46389,-1.56855 -3.04214,-3.72659 -1.04492,-6.58012 2.08734,-1.91283 5.79451,-1.73396 8.50067,-1.74645 4.48784,0.45214 8.50872,-1.49448 12.60648,-3.08051 9.99359,-3.41622 20.58889,-4.86906 31.05209,-6.00881 4.85352,-0.39396 9.73017,-0.57477 14.59898,-0.628 3.82107,0.0319 7.63672,0.25069 11.45567,0.37328 2.31779,0.0309 4.67283,0.31423 6.95811,-0.13936 3.38434,-3.24468 4.93048,-7.86555 7.1471,-11.942762 0.28575,-0.416025 0.48174,-0.91291 0.85725,-1.248061 0.12608,-0.112526 0.33551,0.02248 0.50327,0.03368 -17.74665,-8.902642 -35.62965,-17.532345 -53.23994,-26.707918 -0.43535,-0.226837 1.08513,-0.618704 1.44273,-0.280242 0.80571,0.762617 1.03651,4.577808 1.12299,5.339098 0.52462,5.334461 -0.47061,10.326804 -2.58443,15.179577 -3.20276,5.944124 -6.86867,11.609378 -10.53403,17.269868 -3.00289,4.65766 -7.04419,8.6274 -9.23373,13.77292 -1.35889,4.73512 -1.33436,9.71992 -1.591,14.60559 -0.10814,3.26702 -1.23109,6.36019 -1.7161,9.56279 -3.52569,23.28078 44.60228,31.72745 52.4966,36.34877 6.77827,-2.12085 11.02769,-7.9653 14.5866,-13.82497 1.35747,-2.50282 2.89343,-4.95867 3.85291,-7.66178 0.72254,-2.03564 1.10902,-4.15239 1.86119,-6.18185 0.20287,-0.33757 0.26062,-1.19191 0.60861,-1.01266 0.44911,0.2313 0.0823,1.047 0.32531,1.4937 0.29429,0.54104 0.79427,0.94036 1.23251,1.37023 0.5948,0.58337 2.58571,2.07333 1.86215,1.66514 -44.9879,-25.37961 -61.23784,-38.32305 -44.10162,-24.89227 4.29904,4.01947 5.92544,9.35032 6.96199,14.97022 0.39773,3.65925 0.51112,7.39116 0.0734,11.05004 -0.6897,3.31808 -1.0966,6.632 -1.19449,10.01703 -0.40457,4.88548 -2.8769,9.19225 -5.03364,13.4729 -3.00569,5.56965 -6.59801,10.79142 -9.44075,16.44984 -2.58627,5.157 -4.80987,10.48771 -7.44224,15.62665 -3.37983,6.96915 -8.11289,12.8822 -13.47668,18.36467 -6.05374,6.01856 -12.78507,11.22207 -19.51204,16.42451 -6.09084,5.00664 -12.76652,9.09286 -19.75859,12.65965 -8.88039,3.44783 -17.3703,7.7825 -26.53823,10.41659 -6.11577,1.8944 -12.44877,2.43545 -18.72883,3.40601 -0.887,0.2302 -1.78339,0.4261 -2.661,0.69062 -4.15433,1.25218 -1.81981,0.90001 -6.42697,1.84026 -3.64611,0.74413 -7.36183,1.08475 -11.02603,1.73285 -7.38393,1.36449 -14.86217,1.69843 -22.34959,1.65245 -1.77621,-0.0366 -3.61132,0.0537 -5.35275,-0.42937 -0.63688,-0.17669 -1.20977,-0.53623 -1.81465,-0.80435 16.55483,9.38549 33.14162,18.71349 49.66447,28.15649 0.39232,0.2242 -0.98018,-0.13653 -1.26078,-0.4932 -0.40548,-0.51543 -0.40359,-1.25266 -0.60539,-1.87899 0.15134,-1.13469 0.14319,-2.30313 0.45403,-3.40407 3.24751,-11.50231 12.92593,-21.338 21.00467,-29.56359 8.87006,-9.12562 19.76669,-15.68892 29.82126,-23.31293 7.6579,-6.38701 15.55777,-12.43126 23.53846,-18.39955 8.05491,-6.75274 17.43726,-11.6002 26.11108,-17.47538 11.35285,-7.63582 18.04154,-19.75424 25.78581,-30.70854 2.36911,-2.65012 3.78764,-6.08063 6.14225,-8.74926 0.52128,-0.59076 1.25967,-0.94041 1.88951,-1.41063 -17.39782,-8.93152 -34.01397,-19.6315 -52.19345,-26.79458 -1.81299,-0.71436 -0.70194,3.87227 -1.08318,5.80246 -0.58177,2.94537 -1.20384,5.88245 -1.80576,8.82368 -4.77567,22.2839 -11.43396,44.14529 -20.73607,64.94007 -5.28636,11.8176 -9.32987,18.75945 -15.39861,29.88702 -2.87829,4.31192 -7.1656,12.07862 -12.00454,15.373 -1.00871,0.68677 -2.39437,0.42957 -3.59153,0.64436 16.93328,8.73436 33.27861,18.74952 50.79987,26.20307 1.53521,0.65308 -0.96885,-3.28985 -0.89379,-4.97298 0.12957,-2.90411 0.99919,-5.72557 1.49878,-8.58837 5.57764,-20.01477 14.51454,-38.95304 24.52932,-57.05552 16.3633,-27.24948 19.58372,-18.18005 -43.37736,-45.47095 -3.15735,-1.3686 -5.50405,4.16541 -8.36771,6.08447 -4.40524,2.95212 -8.95244,5.68146 -13.42866,8.52218 -15.61986,8.27736 -31.14153,17.35687 -47.891,23.20266 -3.68138,1.28484 -7.43536,2.62765 -11.31816,2.93007 -2.30197,0.17928 -8.762,-2.68724 -6.76103,-1.52196 15.63812,9.10698 31.94159,16.99117 47.91239,25.48675 0.49618,-3.48055 0.3783,-7.1093 1.48857,-10.44166 1.84747,-5.54505 4.49349,-10.8088 7.29689,-15.92715 11.04029,-20.15706 26.43769,-37.22998 42.2248,-53.60879 1.39942,-1.25839 10.57233,-10.31685 14.02025,-10.94017 1.24094,-0.22433 4.26667,2.67827 3.10386,2.18582 -16.81325,-7.12029 -31.98155,-20.36505 -50.12763,-22.10008 -5.71174,-0.54611 -2.24209,11.41735 -4.07424,16.91759 -2.25107,6.75786 -5.42565,13.16395 -8.1385,19.74594 -7.64192,14.1224 -10.79665,20.98828 -19.77121,33.84524 -2.48651,3.56218 -5.01643,7.14697 -8.08175,10.21295 -1.47987,1.48017 -7.13367,2.12897 -5.36247,3.2342 53.67252,33.4916 48.39428,42.51456 52.49808,12.40689 1.68725,-6.01944 3.18553,-12.0964 5.06173,-18.05832 3.74889,-11.91269 11.45422,-33.04617 16.12651,-44.33732 4.72347,-11.41489 11.45505,-26.16218 18.00384,-36.9515 2.17131,-3.57728 4.87831,-6.79206 7.31747,-10.18809 19.08387,-10.34788 28.74513,-13.80283 -45.24947,-25.273389 -4.70796,-0.729831 -0.78552,9.631559 -1.79093,14.341489 -3.57462,16.74571 -10.67165,32.12021 -17.96196,47.43783 -1.91315,3.12982 -3.56769,6.4374 -5.73947,9.38943 -13.64278,18.5443 -52.61421,-6.74327 45.711,35.13196 2.79489,1.1903 2.08421,-5.76437 3.25773,-8.59317 3.80916,-9.18206 4.72123,-10.32156 9.58134,-19.41785 5.55307,-8.61096 10.59763,-18.05558 18.20856,-25.09138 1.296,-1.19807 5.86882,-2.01819 4.37986,-2.95911 -52.67393,-33.2864 -50.33934,-44.27195 -50.28361,-18.01088 -0.95242,3.87074 -1.70033,7.79894 -2.85725,11.61221 -1.63927,5.40311 -7.00635,19.15127 -9.12807,24.37351 -4.11963,10.13967 -8.45179,20.20281 -12.95317,30.17379 -5.1524,11.30835 -10.34322,22.6223 -16.28105,33.53432 -2.83136,5.36058 -6.70944,9.99236 -10.52936,14.6352 -1.71419,2.08349 -4.10642,4.45213 -4.88047,7.21143 -0.36186,1.29 -0.16188,2.67685 -0.24281,4.01529 11.95034,21.04999 1.97269,4.85094 54.67326,33.56307 1.35349,0.73739 7.96879,0.93192 9.89323,1.26671 0.90262,0.15702 1.77396,0.46166 2.66095,0.69249 5.36054,0.85877 9.73408,2.51719 14.49645,5.05767 -16.05893,-9.26517 -32.129,-18.51059 -48.17678,-27.79549 -0.54429,-0.31492 1.12125,0.56958 1.66532,0.88492 2.37367,1.37585 3.1577,2.22643 4.01946,4.86133 5.7e-4,0.31339 0.091,0.64002 0.002,0.9401 -0.14751,0.4962 -6.74048,4.04941 -7.33174,4.394 -5.75665,2.75018 -9.90717,7.58112 -14.41387,11.96335 -4.34299,4.19665 -6.67853,8.16202 -8.84643,13.71915 -1.62793,3.92649 -4.09824,7.3977 -6.05073,11.15248 -1.94348,3.64125 -4.17427,7.11062 -6.13842,10.74122 -1.95262,4.8532 -1.45129,10.18705 -1.60463,15.31212 -0.29069,4.60982 -0.50053,9.2282 0.35063,13.78433 1.7591,4.88097 4.46559,9.27766 6.07624,14.22373 1.30631,3.89669 2.37795,8.00652 1.54817,12.12155 3.14556,-20.51803 -0.01,-1.30479 54.22635,24.71357 0.38488,0.18465 -0.89557,0.18321 -1.27789,-0.007 -1.93077,-0.95965 -3.44229,-3.73107 -4.69928,-5.3801 -1.29549,-2.10524 -2.00372,-2.75328 -2.23689,-5.4226 -0.50887,-5.8256 2.78586,-14.84301 4.51987,-20.34241 0.7483,-1.91868 1.47871,-3.84461 2.24489,-5.75604 0.7217,-1.80048 1.53999,-3.56162 2.21855,-5.3792 2.25359,-6.03643 3.82469,-12.32533 5.65721,-18.49882 0.31166,-0.62268 1.51514,-1.49035 0.93497,-1.86804 -35.91063,-23.37829 -45.8521,-50.68023 -53.39493,-26.03091 -1.11051,3.62904 -1.20917,7.85019 -1.73398,11.58846 -1.95229,8.49649 -3.93445,17.00025 -6.20543,25.41598 -1.29784,6.5679 -3.75224,12.59068 -9.36641,16.39613 -4.20197,1.73587 -8.79974,1.69751 -13.26433,1.69183 -5.12332,-0.0215 -10.24398,0.0558 -15.36421,-0.15352 -6.19223,-0.66429 -9.1629,1.05946 -14.46414,3.90496 -4.58273,2.34449 -8.4215,5.82845 -13.33151,7.47368 -2.13226,0.65109 -4.4616,0.19593 -6.10359,-1.42055 -0.35747,-0.35193 -1.31377,-1.47561 -0.882,-1.22293 16.70702,9.77675 33.21036,19.9055 49.81553,29.85825 -0.28218,0.14684 -0.64511,0.68858 -0.84655,0.4405 -0.24937,-0.30711 1.0884,-3.20541 1.41943,-3.89572 2.07034,-4.31748 4.68269,-8.33092 7.17717,-12.40235 5.56255,-9.79889 10.72456,-19.85706 15.61053,-30.02154 5.16229,-10.43299 6.67496,-21.83265 7.43856,-33.31549 0.33164,-5.60834 0.64134,-11.23296 1.37196,-16.8071 0.13306,-1.01508 0.18695,-2.05601 0.49861,-3.03024 0.13657,-0.42684 1.20527,-0.85904 0.81193,-1.06626 -17.57062,-9.25613 -35.53599,-17.72424 -53.30398,-26.58638 0.96518,12.26219 0.44529,24.64821 -1.98999,36.72441 -0.50685,2.51346 -1.27892,4.96465 -1.91838,7.44696 -0.66451,1.89201 -1.05744,3.90548 -1.99353,5.67599 -0.5077,0.96027 -1.17295,2.28456 -2.24769,2.34581 -0.8034,0.0457 -1.86217,-2.51147 -1.13982,-2.1528 16.48751,8.18662 32.27097,17.78465 48.82598,25.83064 1.53487,0.74598 -2.49617,-2.37868 -3.47409,-3.78893 -1.25871,-1.81515 -2.12512,-3.87854 -3.18767,-5.81781 -0.78384,-2.09352 -1.62687,-4.16531 -2.35152,-6.28053 -2.2558,-6.5846 -2.16026,-6.83902 -3.71037,-13.36837 -0.53248,-2.24297 -1.45334,-6.92007 -2.614,-9.17727 -0.57409,-1.11644 -1.479,-2.02389 -2.21851,-3.03581 -17.9505,-9.19622 -35.3812,-19.51429 -53.85146,-27.58864 -1.59048,-0.69527 -3.23682,1.25347 -4.83334,1.93435 -6.25657,2.66828 -11.1387,5.71142 -16.9005,9.201 -4.50373,3.10929 -9.41941,4.31298 -14.72431,4.85584 -7.12427,0.60683 -14.32504,0.54613 -21.41078,1.54625 -1.40868,0.39486 -3.84823,0.7087 -4.63772,2.36247 -10.81364,22.65193 50.75878,35.2174 52.00663,35.87871 1.32886,0.70427 3.00022,0.0323 4.50038,0.0293 1.96854,-0.004 3.93697,-0.0335 5.90546,-0.0504 10.43153,0.24626 20.85812,0.62308 31.29214,0.74407 30.52054,-0.81596 30.35021,12.0869 -34.74698,-35.03549 -10.75236,2.55104 -22.03403,1.96438 -33.00185,1.77151 -11.19901,-0.42141 -22.47343,0.44914 -33.58992,1.84855 -7.64542,1.40426 -11.17366,1.79568 -14.07343,9.58321 -1.37834,4.20305 -0.0259,8.16649 0.89867,12.27887 2.11882,9.42478 -0.93933,-3.50681 1.47546,6.58356 1.83136,6.67163 2.42263,13.54489 2.82301,20.4263 0.17499,4.68756 -0.29576,9.36443 -0.25076,14.04933 -0.003,0.39233 0.007,3.06469 -0.10078,3.5856 -0.0887,0.43188 -0.20598,-0.89282 -0.49123,-1.2264 -0.26601,-0.31111 -0.73624,-0.34951 -1.10777,-0.51664 -0.52183,-0.23473 -1.0481,-0.45924 -1.57213,-0.68885 -1.41379,-0.18642 -2.67238,-1.09321 -4.08671,-1.26862 -2.79755,-0.34699 -5.63748,-0.0658 -8.45347,-0.1856 -5.37537,-0.22869 -5.97004,-0.31671 -11.35048,-0.71881 -5.38723,-0.80113 -11.29351,-1.01907 -15.96466,-4.19698 -0.8317,-0.56584 -3.21243,-2.40926 -2.33975,-1.91061 15.83151,9.04665 31.49985,18.38243 47.24978,27.57364 -17.92805,-12.30682 -37.25434,-22.25559 -56.09096,-33.15107 -1.68165,-0.97271 -3.72959,-1.43582 -5.59816,-1.86284 -3.317593,-0.44133 -6.65751,-0.28625 -9.902561,0.49645 -5.466087,1.45778 -7.709836,7.06492 -9.267118,12.04462 -6.129175,22.52299 4.092787,11.74832 50.196949,35.88892 1.03979,0.54444 5.538,-9.51388 5.93726,-10.36916 6.62211,-11.07768 11.71812,-22.97423 17.32445,-34.59237 6.49939,-11.32923 11.96196,-23.14565 15.61701,-35.71623 7.3447,-24.69075 15.4044,-6.36393 -49.96465,-35.31231 -1.64676,-0.72925 -0.72229,3.56302 -1.08869,5.34342 -0.86663,4.21112 -1.74731,8.4193 -2.61954,12.62926 -1.41523,7.84311 -2.98565,15.65709 -4.54055,23.47289 -1.14053,5.73293 -1.88067,10.40064 -4.45406,15.61955 17.0833,9.90647 32.76018,22.86868 51.2499,29.71944 3.33777,1.2367 -0.30365,-7.19426 -0.15272,-10.78707 0.49366,-11.7502 2.55057,-24.08168 7.59218,-34.78827 1.15996,-2.46334 2.91985,-4.5886 4.37977,-6.88289 1.32099,-0.93575 2.35036,-2.81411 3.96297,-2.80725 1.12879,0.005 2.91681,3.33919 1.90537,2.83218 -16.33471,-8.18805 -31.58497,-18.56894 -48.24335,-26.05988 -1.85285,-0.83318 1.99846,3.59964 2.63061,5.54872 1.67114,5.15261 1.88726,10.18545 2.429,15.52414 0.30492,9.81326 0.17442,19.77046 -1.902,29.40017 -2.05172,6.66462 -7.6025,10.86226 -13.05341,14.64765 -4.38564,2.8754 -9.39785,4.87193 -12.58839,9.2636 -1.49275,2.05469 -2.66167,4.33256 -4.07151,6.44636 -4.155919,4.75118 -6.646108,6.39482 -12.25112,2.97764 -12.134722,-17.3595 -0.197418,0.21782 47.4803,27.25994 0.68087,0.38617 -1.01425,-1.27207 -1.18679,-2.04219 -0.32156,-1.43524 -0.33746,-2.93776 -0.25814,-4.4072 0.20968,-3.88505 1.60459,-10.17883 2.31522,-13.80023 3.20875,-16.37681 5.82558,-32.85408 7.93111,-49.41686 1.54749,-10.39623 1.6629,-19.52848 -1.2192,-29.64228 -0.61298,-2.31701 -1.74067,-4.44835 -2.47,-6.72216 -0.19481,-0.60737 0.12052,-1.55161 -0.42894,-1.86583 -14.82824,-8.47982 -52.790814,-49.8487 -54.600493,-21.39536 -0.952515,22.60231 -27.478912,-9.38823 53.275433,28.16027 0.37798,0.17573 -0.48585,-0.68933 -0.66016,-1.07147 -0.54453,-1.19368 -0.92777,-2.45703 -1.44465,-3.66327 -0.65612,-0.28533 -1.75222,-5.7195 -1.84019,-5.76895 -31.19868,-17.53475 -45.631324,-46.38443 -56.10496,-23.18394 -1.268002,2.67919 -2.299814,3.07518 -2.246841,6.2448 0.350572,4.93764 1.094645,9.88193 0.879023,14.84004 -10.393342,18.41079 -1.97816,2.82926 53.342188,27.69065 0.80969,0.36389 -0.0524,-1.79326 -0.13859,-2.68536 -0.36274,-3.75851 -0.85312,-7.52995 -1.32591,-11.27659 -0.43101,-7.20366 -2.60278,-14.08521 -4.49107,-20.99364 -1.87119,-6.34899 -2.69106,-12.91634 -3.5717,-19.45783 -0.79615,-4.5083 -0.88694,-9.08961 -1.76414,-13.58268 -0.77952,-4.58552 -1.73031,-9.11014 -2.29222,-13.73191 -1.01342,-7.51135 0.2608,-15.05277 1.934,-22.36546 1.36645,-6.2899 3.03897,-12.49742 4.80937,-18.68169 1.62301,-4.84684 4.62185,-9.10069 8.30839,-12.56297 1.16614,-0.96817 7.84236,-6.07855 8.99459,-5.47617 0.52813,0.27611 0.29531,1.16512 0.44297,1.74768 -16.83638,-10.18283 -33.36795,-20.90021 -50.509169,-30.54853 -0.60622,-0.34122 0.110017,1.41656 -0.02296,2.10539 -0.236247,1.22354 -0.695364,2.39233 -1.074497,3.57853 -0.479477,1.50015 -1.112147,2.95271 -1.501011,4.47945 -1.405482,5.51815 -1.560467,8.83885 -2.229207,14.65826 -0.168551,3.36669 -0.386953,6.73119 -0.505649,10.10005 -0.396661,11.2581 0.0017,13.95893 -1.145659,25.41147 -1.029081,10.27142 -3.165866,20.39029 -5.157164,30.49976 -0.222654,2.12115 -0.750449,4.23199 -0.667955,6.36342 0.796531,20.58032 50.060291,32.4668 54.303281,34.23693 2.51588,1.0496 4.79133,-2.64989 6.97393,-4.29439 5.71091,-4.30294 12.39523,-11.31934 17.33974,-16.22105 11.22379,-14.05449 24.10585,-26.56608 38.23908,-37.59285 7.06029,-5.50847 16.22253,-12.00689 24.42726,-16.03004 2.56833,-1.25936 5.36851,-1.96247 8.05275,-2.94369 22.48978,13.69434 -30.94348,-19.03459 -51.24207,-22.13639 -6.07258,-0.92794 -7.8599,9.57907 -12.25858,13.91502 -11.44858,11.28523 -24.20543,21.04327 -37.36757,30.15716 -5.97038,4.13408 -12.21484,7.84766 -18.32227,11.77149 -1.91326,1.11568 -20.495104,12.99272 -25.769197,12.98179 -1.786274,-0.004 -5.038117,-4.89884 -3.392031,-4.19706 17.803038,7.59 33.339478,21.81255 52.386098,25.08477 5.54729,0.95302 5.54346,-9.93078 8.7998,-14.57302 4.14898,-5.91476 8.91664,-11.35946 13.37496,-17.0392 12.87333,-14.623 26.97411,-28.06744 41.21967,-41.29758 6.91892,-6.42575 14.12511,-12.48442 20.77953,-19.18926 7.56628,-23.32762 4.87923,-10.4737 -53.34032,-32.58874 -2.92992,-1.11295 -5.41421,3.18782 -8.22291,4.58447 -9.03784,4.49423 -18.50579,8.10562 -28.01259,11.41889 -23.65788,4.25234 -12.16783,1.06349 45.11087,32.57229 1.08388,0.59625 1.19946,-2.20868 2.03254,-3.12933 3.98376,-4.40259 7.87923,-6.18755 13.26889,-8.08009 17.42492,15.78177 -14.37739,-13.37058 -46.63423,-24.69279 -2.88414,-1.01234 -0.76259,6.16598 -1.707,9.1029 -3.86351,12.01476 -11.04158,22.63289 -17.66173,33.19346 -0.98987,2.59417 -3.44631,5.04391 -2.9696,7.78252 0.52306,3.00473 2.83804,5.93261 5.57867,7.20578 19.39933,9.01208 38.9171,18.71767 59.80558,23.16889 7.08164,1.50906 13.89267,-4.11544 20.89305,-5.97245 22.23137,-5.89737 24.96386,-6.14264 47.09069,-10.69388 -21.62196,-17.91263 37.84546,4.45089 29.44214,-0.68282 -16.42429,-10.03381 -32.38248,-22.58325 -51.11786,-26.76797 -5.93159,-1.32484 -8.54992,8.83949 -13.55413,12.32298 -12.1174,8.43501 -30.26333,16.01808 -43.52807,22.09356 -10.05378,3.97916 -25.22384,10.40025 -36.11256,13.30554 -20.50601,5.47135 -60.677238,-3.39546 36.94819,33.28649 4.24315,1.59431 5.56453,-7.34639 9.12594,-10.17258 5.74124,-4.55601 12.35784,-7.85298 18.53676,-11.77947 20.06689,-10.43365 41.01222,-19.20978 62.651,-25.71618 4.2349,-1.27336 8.4647,-2.796 12.86057,-3.24286 1.97989,-0.20127 7.56143,2.31775 5.81992,1.34387 -17.56625,-9.82342 -35.65237,-18.66376 -53.47856,-27.99562 -3.65969,3.0058 -7.08654,6.32757 -10.97907,9.0174 -9.62069,6.64813 -21.98155,12.81831 -32.45419,17.84497 -12.2112,5.86118 -24.73248,11.07642 -37.05433,16.69464 -1.73456,1.00974 -3.73702,1.65178 -5.20368,3.02918 -1.02817,0.96555 -3.13727,2.90191 -2.00692,3.74245 16.32264,12.13753 33.86273,22.53452 51.32181,32.92812 1.01211,0.60252 2.33759,-0.26176 3.51171,-0.28504 3.04697,-0.0604 4.23079,0.22737 7.23661,0.64848 0.99294,0.50296 1.98589,1.0059 2.97883,1.50886 -15.7535,-8.88677 -31.18805,-18.37865 -47.26049,-26.66026 -0.98624,-0.50819 1.26989,1.92833 1.41627,3.03821 0.20339,1.54205 0.0675,3.16804 -0.40236,4.64938 -2.14203,6.75349 -5.5156,9.43298 -10.14796,15.01998 -8.41519,7.05803 -17.66006,15.08069 -28.44942,18.21467 -1.92946,0.56046 -4.16694,1.26552 -6.00576,0.45082 -1.24814,-0.55301 -2.78882,-4.45445 -1.58274,-3.81297 16.75325,8.91037 32.66492,19.35392 48.99737,29.03089 0.44267,-1.8162 0.6734,-3.69918 1.32802,-5.44864 3.77332,-10.08424 11.23667,-18.47901 17.86874,-26.70997 1.28601,-1.89454 3.1203,-4.12183 3.62908,-6.49425 4.26412,-19.88394 -53.77737,-30.77421 -53.89765,-30.82292 -1.6409,-0.66463 -2.41005,2.61693 -3.57999,3.9573 -1.27893,1.46526 -2.51035,2.97225 -3.76555,4.45838 -0.83373,0.99619 -5.65333,6.8108 -6.8198,8.00838 -14.67046,15.06181 -48.312337,-9.30558 49.4402,28.14072 1.86634,0.71495 0.79534,-3.95967 1.31557,-5.9088 0.60246,-2.25712 1.3666,-4.46687 2.0499,-6.70032 1.89274,-7.49998 9.15988,-20.52072 5.82828,-28.20588 -0.65244,-1.50502 -1.92914,-2.64463 -2.89372,-3.96695 -0.40791,-0.23395 -36.6357,-30.67096 -57.23237,-30.61895 -1.43958,0.004 -2.9641,-0.1046 -4.29597,0.44812 -5.51477,2.28856 -7.72967,8.5885 -9.9571,13.55729 -1.22867,4.21701 -4.61718,12.55618 -4.18828,16.98688 0.18683,1.93018 0.17262,4.4626 1.76921,5.53611 48.99804,32.94498 33.87296,30.98701 62.75751,31.83952 15.6701,-0.10781 30.90779,-4.31051 46.41626,-5.84774 2.31614,-0.22958 8.90282,1.07588 6.97739,-0.24654 -15.72673,-10.80143 -32.91429,-19.24701 -49.37144,-28.8705 -5.79465,5.57188 -12.87622,10.22958 -20.4163,13.01751 -1.76559,0.65282 -3.62233,1.53726 -5.48868,1.31022 -0.92662,-0.11273 -1.18107,-1.46226 -1.77158,-2.1934 17.17035,10.18994 33.05432,23.02482 51.51111,30.56985 2.87493,1.17524 3.98299,-4.83444 6.27497,-6.94723 12.4366,-11.4644 27.08353,-20.71595 41.75654,-28.90581 4.63854,-2.58906 9.43422,-4.87883 14.15135,-7.31824 2.50784,-1.02974 15.31648,-7.17279 19.86019,-6.40465 1.50324,0.25413 4.34822,4.20556 2.99613,3.49404 -16.74534,-8.81204 -31.87643,-20.93393 -49.43794,-27.93351 -2.35727,-0.93955 -1.15489,5.01372 -2.11404,7.38616 -1.26819,3.13689 -3.02627,6.04741 -4.5394,9.07112 -5.4396,9.3358 -12.01683,17.90772 -19.141,25.97745 -1.78069,2.01703 -3.6436,3.95871 -5.50539,5.89935 -1.17707,1.22692 -4.93495,2.5407 -3.60982,3.60191 15.53419,12.44024 33.03899,22.13008 49.55849,33.19514 2.08364,-3.6229 4.01279,-7.34136 6.25088,-10.86872 10.91968,-17.20996 25.37377,-35.4297 41.10565,-48.37209 1.85382,-1.52511 3.95417,-2.71492 5.93123,-4.07238 -16.59231,-10.70629 -31.77003,-24.08567 -49.77693,-32.11886 -2.95965,-1.32034 -4.53042,4.68784 -7.01521,6.78294 -3.5141,2.963 -7.22777,5.67921 -10.9521,8.3666 -9.68364,6.98743 -18.4315,12.70073 -28.74158,18.72779 -4.41102,2.57861 -8.95522,4.91672 -13.43283,7.37508 -3.49406,1.71592 -6.9359,3.54522 -10.48217,5.14777 -21.5845,9.75401 -38.80058,0.74496 45.93828,32.33714 3.73774,1.3935 6.50037,-4.68303 9.95918,-6.68213 8.82752,-5.10205 16.9219,-8.30795 26.22244,-12.34797 4.54914,-1.65923 14.27179,-6.06134 19.99412,-5.4486 1.69134,0.1811 5.86111,3.4901 4.35994,2.68132 -16.20671,-8.73161 -31.38213,-19.68919 -48.48317,-26.45335 -2.14088,-0.84681 -0.31649,4.66926 -0.9128,6.91517 -0.7822,2.94612 -2.13084,5.70753 -3.19627,8.5613 -2.777,5.57399 -4.44483,9.26829 -7.61004,14.44886 -12.04401,19.71263 -29.08488,0.74814 49.23073,33.08092 2.41227,0.99591 2.03173,-4.85704 3.17189,-7.22708 1.34437,-2.79454 2.85186,-5.50573 4.27777,-8.25859 4.56257,-8.01097 9.14405,-16.03495 14.03126,-23.85057 0.46535,-0.74422 5.38955,-8.38388 6.65209,-9.52577 0.59195,-0.53538 1.50249,-0.52013 2.25373,-0.78019 -17.15184,-8.76222 -33.95883,-18.25259 -51.45556,-26.28667 -1.07169,-0.49209 1.29578,2.10237 1.37396,3.29041 0.19407,2.94834 -0.0788,5.93361 -0.57518,8.84548 -1.46615,8.60014 -5.18438,16.61112 -8.76712,24.45499 -0.75453,1.31175 -1.37041,2.71588 -2.26358,3.93527 -0.4425,0.60411 -1.12904,0.9781 -1.69356,1.46716 17.78318,8.53424 34.66103,19.3546 53.34955,25.60276 2.31746,0.77479 0.98198,-4.841 1.62668,-7.22249 2.0583,-7.60304 3.05551,-9.64258 5.86692,-16.96435 3.12771,-7.73478 5.94967,-15.62472 9.61814,-23.12588 0.88709,-1.81385 3.52793,-7.27761 5.67643,-8.91392 0.5016,-0.38202 1.24782,-0.14206 1.87173,-0.2131 -17.70327,-8.25897 -34.44918,-19.069 -53.10979,-24.77694 -2.58923,-0.792 -0.94403,5.3912 -1.54124,8.0602 -0.77429,3.46025 -1.66683,6.89285 -2.5717,10.32051 -2.74061,10.38148 -6.18756,20.26964 -10.05418,30.26287 -11.71371,30.62621 -15.9838,19.10998 45.24273,44.97405 2.15158,0.90889 1.09787,-4.58713 1.53116,-6.90486 0.57746,-3.08894 0.99987,-6.20551 1.49981,-9.30828 2.0915,-11.74634 5.35719,-23.23121 9.29535,-34.47006 1.19845,-3.4202 3.9305,-10.86019 5.92906,-14.48741 0.49157,-0.89217 1.24594,-1.60758 1.86891,-2.41138 -17.60428,-8.59956 -33.99267,-20.44856 -52.81288,-25.79871 -3.29392,-0.93638 -1.84195,6.67017 -2.92224,9.95453 -1.49581,4.54771 -3.10267,9.05917 -4.80309,13.53268 -3.21454,8.45695 -8.21195,20.45951 -12.1835,28.65756 -1.79756,3.7105 -3.85919,7.28396 -5.78878,10.92594 -1.58791,2.43969 -2.88408,5.1017 -4.76369,7.31909 -0.88866,1.04834 -2.26617,1.54047 -3.39923,2.31071 17.17179,8.98012 33.32394,20.32691 51.51542,26.94034 2.4921,0.90602 0.17952,-5.36376 0.53037,-8.01919 0.50187,-3.79829 1.37029,-7.53784 2.02388,-11.31243 0.90087,-5.2026 1.75966,-10.41257 2.63949,-15.61885 3.01342,-16.58507 7.27003,-32.93055 12.49603,-48.9392 0.78766,-2.41285 5.03702,-15.51111 7.62742,-18.61591 0.67822,-0.81288 2.04768,-0.48445 3.07153,-0.72667 -17.27231,-8.1128 -33.66092,-18.5268 -51.8169,-24.33841 -2.43071,-0.77804 0.12171,5.16386 -0.0459,7.73747 -0.67894,10.41922 -3.2876,20.64927 -5.44949,30.82366 -3.78098,22.14884 -3.16788,12.40904 53.24413,26.84702 3.07074,0.78592 2.10123,-6.05381 2.90086,-9.15447 1.1246,-4.36078 1.80416,-8.82885 2.86559,-13.20581 2.44223,-10.07095 4.29372,-15.74545 7.24646,-25.53063 1.0676,-3.4926 2.15047,-6.98044 3.20279,-10.47777 1.6945,-5.63163 2.66467,-9.69011 4.79524,-14.98704 0.44407,-1.10402 2.58181,-2.57548 1.57806,-3.19959 -52.77557,-32.81497 -45.987,-46.65913 -54.08082,-21.85907 -4.55808,13.61841 -10.31912,27.83417 -18.7665,39.51796 -1.41561,1.95797 -3.06893,3.72814 -4.60336,5.5922 -1.44753,1.31451 -2.63903,2.99365 -4.34256,3.94351 -0.92589,0.51627 -2.10841,0.16085 -3.16261,0.24129 16.86258,8.85409 32.6605,20.19937 50.58773,26.56225 2.61113,0.92677 0.0853,-5.63396 0.66435,-8.37144 2.4458,-11.56231 5.581,-16.84447 10.4966,-27.86342 7.16358,-12.85725 14.95385,-25.63243 24.9121,-36.52172 1.99744,-2.18421 4.10708,-4.30705 6.50072,-6.03627 1.25522,-0.90678 5.58446,-0.91206 4.28843,-1.75803 -16.31807,-10.65148 -33.93528,-19.1128 -50.90292,-28.66922 -0.5824,2.03824 -0.86777,4.18857 -1.74719,6.11472 -3.25713,7.13401 -8.37611,13.90999 -13.3235,19.83164 -8.30584,9.94139 -17.87066,18.44492 -27.51659,26.99248 -2.42557,1.91487 -4.79374,3.90656 -7.27668,5.74464 -19.16077,14.18436 -28.27452,1.74673 44.918,35.84411 2.68536,1.25101 3.69902,-4.67277 5.70169,-6.87293 5.62174,-6.1761 13.54604,-13.63646 19.42063,-19.32284 3.68774,-3.35136 7.3669,-6.71239 11.06322,-10.05406 1.1224,-1.01469 15.08244,-13.37734 17.03602,-15.70354 1.35394,-1.61217 4.82152,-4.1993 3.15932,-5.4829 -48.42972,-37.3989 -34.72931,-39.98405 -62.5645,-27.81566 -4.82238,2.53146 -9.67506,5.0047 -14.46716,7.59434 -23.40299,12.64686 -11.96017,7.06889 -36.14895,19.55154 -14.20349,7.32972 -28.6124,14.17494 -43.13748,20.81828 -1.84021,0.0273 -7.09276,-0.88626 -5.52069,0.0818 16.97488,10.45352 33.56017,22.35911 52.39121,28.78209 3.45447,1.17827 4.38139,-5.92615 6.9523,-8.54094 9.69549,-9.8609 21.32959,-17.44762 32.88084,-24.81102 2.75202,-1.4568 5.34927,-3.26318 8.25605,-4.37041 1.34747,-0.51329 2.86678,-0.27497 4.3002,-0.41243 -18.37928,-8.44069 -35.56911,-20.31716 -55.13782,-25.32208 -3.90648,-0.99912 -5.10813,6.32796 -7.9907,9.17627 -7.65451,7.56354 -12.89502,10.85045 -21.51213,17.0681 -4.50592,2.80926 -11.7797,8.4342 -17.83065,8.72415 -1.77996,0.0852 -6.55642,-2.81191 -4.97186,-1.98722 15.59012,8.11404 30.41061,18.15611 47.00951,23.8661 2.4447,0.84098 -0.62192,-5.22598 -0.38473,-7.82725 0.27303,-2.99461 1.26804,-5.87625 1.90206,-8.81437 2.61075,-6.55634 5.06342,-13.88494 10.04246,-19.12693 0.85329,-0.89835 1.84642,-2.38488 3.04806,-2.11215 1.01581,0.23056 1.86453,3.48437 0.93229,3.01557 -16.71678,-8.40657 -32.73753,-18.16093 -49.1063,-27.2414 4.0834,9.67326 3.40958,20.40097 4.72856,30.64781 0.31862,2.47534 0.56451,4.98165 1.23683,7.38344 0.63153,2.25608 1.76696,4.33552 2.65044,6.50327 17.31933,20.13429 6.58206,8.82879 57.33269,35.41992 1.995,1.04529 4.43172,0.77864 6.66872,0.98946 2.18515,0.20594 8.72831,0.42106 11.13927,-0.19043 1.47609,-0.37436 2.76207,-1.29316 4.14311,-1.93974 0.96028,-0.87302 2.08133,-1.59353 2.88087,-2.61907 0.6464,-0.8291 3.50256,-5.91183 1.51229,-7.19368 -34.49621,-22.21761 -34.99605,-32.85077 -58.92919,-29.53947 -2.92233,0.97091 -6.31161,2.37024 -8.2596,4.96524 -0.99109,1.32029 -3.59811,6.42611 -1.18378,8.00606 17.23662,11.27965 35.7578,20.41051 53.6367,30.61576 23.82333,-1.70397 47.22035,-6.76072 70.6658,-11.08701 12.42794,-2.67639 25.24691,-3.57016 37.5843,-6.72368 9.11268,-2.32928 18.4933,-6.07907 27.34266,-9.34973 6.00392,-2.41536 11.81571,-5.2734 17.74417,-7.86442 2.72517,-1.19103 4.21232,-2.00944 7.09688,-2.39481 1.07884,-0.14414 2.17532,-0.0705 3.26297,-0.10572 5.30672,0.28416 9.54378,4.1424 14.90212,4.18447 2.8188,0.0221 8.78231,-1.27016 11.38832,-1.768 2.65395,-0.91726 14.31056,-1.65751 16.14952,-3.72603 0.91584,-1.0302 3.06943,-2.84227 1.95925,-3.65368 -16.3768,-11.96966 -34.27038,-21.65744 -51.40556,-32.48615 -2.37478,0.45009 -5.66802,3.44115 -8.0408,3.18558 -0.55815,-0.0601 -1.93493,-1.15134 -1.442,-0.87972 16.21801,8.93654 32.41244,17.91685 48.61865,26.87528 -0.91576,-0.96179 -2.016,-1.7736 -2.74726,-2.88535 -4.50224,-6.84467 -4.88785,-16.07019 -5.20968,-23.99942 -0.31376,-6.66151 -0.22627,-13.64227 -3.85812,-19.52084 -1.00272,-1.623 -2.3147,-3.02807 -3.47204,-4.54209 -17.05416,-16.46502 -39.58675,-25.45386 -60.06336,-36.9538 -3.93561,-2.21029 -8.54251,-1.94614 -12.83988,-1.81077 -5.27441,1.27454 -11.51382,1.8876 -15.88081,5.53505 -2.32951,1.94567 -2.90792,3.47771 -4.36937,6.03973 -1.36047,4.00491 -1.67318,8.09533 -0.21664,12.13461 0.40598,1.12591 0.62818,2.55196 1.62682,3.19667 50.69831,32.72982 32.49516,36.11746 56.21569,30.29352 5.45442,-2.2494 9.71737,-6.46121 13.94408,-10.47936 1.33475,-1.26889 5.20592,-4.97586 6.20566,-6.943 0.61024,-1.20074 0.74741,-2.59228 1.12112,-3.88841 -18.22309,-9.00776 -35.47136,-20.40479 -54.66928,-27.02331 -2.68633,-0.9261 -4.0842,3.99248 -6.00555,6.1056 -2.79551,3.07452 -5.66185,6.10568 -8.13754,9.44902 -22.25754,30.05823 1.24999,2.50885 -25.56282,36.38458 -5.52515,6.98057 -11.55419,13.53723 -17.33128,20.30584 -22.07315,23.56341 -47.61135,43.40541 -76.09576,58.37291 -12.22475,6.42365 -18.88894,8.78924 -31.49147,13.91205 -22.41859,8.81447 -46.18354,12.56339 -70.08949,13.60121 -7.57814,-0.0453 -15.28921,0.3386 -22.78961,-0.97824 -4.87585,-0.48948 -9.23791,-2.04079 -13.38821,-4.62466 48.85992,28.29606 64.29458,37.35121 46.45929,26.89271 0,0 -54.368631,-22.34169 -54.368631,-22.34169 v 0 c 14.274761,17.53136 0.835961,1.47423 53.601411,32.30309 4.69394,1.7173 9.54095,2.68961 14.54145,2.8559 6.92879,0.091 13.86624,-0.69921 20.64318,-2.14846 21.48015,-5.19084 42.48534,-12.40353 63.19083,-20.10725 4.94959,-2.3547 10.06035,-4.39002 14.84878,-7.06412 9.92133,-5.54058 21.2012,-14.08423 29.92797,-21.13496 19.51137,-15.76405 38.07587,-32.78988 55.67061,-50.70272 10.99371,-11.30746 25.245,-26.53447 37.3625,-36.82848 5.24955,-4.45956 10.89794,-8.42506 16.54888,-12.35055 3.52047,-2.44553 7.10357,-4.84718 10.94002,-6.7449 2.60568,-1.28891 10.48763,-0.8701 8.26443,-2.75468 -13.95806,-11.83192 -30.8254,-19.62319 -46.23811,-29.43478 0.9903,-0.33554 2.112,-1.60768 2.9709,-1.00662 0.74718,0.52286 -0.12977,1.88581 -0.55034,2.70051 -2.22205,4.30444 -6.96521,7.84389 -11.53294,9.10081 -1.36515,0.37565 -2.82124,0.21881 -4.23186,0.32824 -19.42399,-8.46092 -6.45807,-2.97918 43.16731,26.91634 0.84291,0.50779 -1.64275,-1.10886 -2.33641,-1.81071 -2.07871,-2.10331 -3.00155,-4.34575 -1.97176,-7.19383 0.36384,-0.6686 0.64014,-1.39429 1.09156,-2.0058 3.25247,-4.40593 9.85595,-4.77387 14.72916,-4.78427 3.91158,0.61359 3.93011,0.39819 7.61672,1.83522 1.1918,0.46457 4.59418,2.24529 3.49757,1.58291 -78.90014,-47.658724 -52.08168,-31.74767 -35.69605,-20.68026 1.1034,1.00544 2.32855,1.88909 3.31022,3.01636 4.14992,4.76535 4.228,11.43841 4.76834,17.3935 1.53592,10.07881 2.96964,20.20192 5.08493,30.17031 54.5081,31.7753 33.163,36.33599 55.10399,30.02607 1.37512,-0.39546 2.37474,-0.82425 3.8265,-0.69225 1.71044,0.15553 1.51907,0.34325 2.4695,1.51326 -16.52003,-10.52882 -33.64478,-20.14396 -49.56007,-31.58648 -0.89363,-0.64248 1.42893,-1.69111 2.24592,-2.43069 0.14133,-0.12796 -0.0146,0.43744 -0.16831,0.54988 -3.10201,2.26949 -7.35539,2.50976 -10.91708,3.34078 -1.99233,0.0663 -3.98765,0.32783 -5.977,0.19912 -7.55777,-0.48897 -14.45395,-5.16497 -22.22189,-3.71614 -1.33713,0.33184 -2.71478,0.52719 -4.01141,0.99551 -2.94362,1.06314 -3.96411,2.10463 -6.47881,3.87644 -3.31999,2.33918 -5.19824,3.67985 -8.84431,5.75564 -2.01266,1.14583 -4.08963,2.17197 -6.13445,3.25795 -5.74286,2.81615 -9.10352,4.62608 -15.22439,6.90467 -14.24601,5.30335 -29.21083,8.48013 -43.99479,11.76343 -14.36389,2.58447 -28.7404,5.08996 -43.32458,6.04153 -7.68429,0.50138 -16.83502,0.71528 -24.54297,-0.46553 -2.93988,-0.45037 -5.76251,-1.48611 -8.64378,-2.22916 14.85933,9.12261 30.15125,17.56027 44.57798,27.36785 3.61251,2.45585 -3.91398,1.61952 -3.10879,0.4021 1.17186,-1.77181 3.97469,-1.84755 5.7548,-1.95992 19.97586,2.0842 42.77953,28.92937 -42.67251,-27.56697 -2.41995,-1.59994 3.68656,-1.656 3.59984,-0.9752 -0.0762,0.59777 -0.83599,0.85893 -1.25399,1.2884 -3.71543,1.41835 -7.18251,1.5841 -11.15318,0.81324 -1.95477,-0.37952 -7.40488,-2.76417 -5.74226,-1.6571 11.41266,7.5993 57.98171,35.96664 35.15977,21.3137 -1.26662,-1.79685 -2.85897,-3.3994 -3.79987,-5.39052 -3.27246,-6.92511 -3.14334,-15.55547 -3.25135,-23.01647 -0.0358,-2.46715 -0.14101,-4.94079 0.0296,-7.40218 0.14507,-2.0931 0.61001,-4.15083 0.91501,-6.22625 -16.96708,-11.11473 -33.32902,-23.23748 -50.90122,-33.34415 -1.02312,-0.58846 -1.55022,1.8075 -2.15796,2.82712 -0.74999,1.25831 -1.30474,2.62689 -1.8935,3.9701 -3.09858,7.06903 -5.51497,14.41199 -8.07423,21.68978 -1.0355,2.98607 -2.09469,5.96384 -3.10647,8.95822 -0.93427,2.76509 -4.86524,6.35 -2.73149,8.31959 45.70774,42.19112 39.40731,44.56164 66.88336,20.19158 6.99273,-5.71018 14.26884,-12.039 22.01454,-16.70672 3.89894,-2.34958 15.04637,-2.52498 12.2045,-6.10453 -11.35409,-14.30137 -29.31332,-21.62478 -43.39404,-33.18117 -1.05603,-0.8667 4.25735,-0.5055 3.99326,0.84399 -0.52431,2.67906 -3.57358,4.09442 -5.36036,6.14163 -10.30836,9.14194 -20.88324,18.13685 -33.29519,24.31513 -3.86923,1.926 -14.89792,1.32966 -12.09463,4.64463 59.04442,69.82186 50.03789,48.33414 42.90733,29.84543 2.46846,-2.37114 4.75665,-4.95045 7.40531,-7.11346 7.46368,-6.09507 19.62121,-13.91254 27.68842,-18.41063 12.49832,-6.96878 25.0425,-12.90977 38.73802,-17.11525 5.87733,-1.80474 11.98939,-2.70633 17.98407,-4.0595 4.42392,0.27367 16.41623,3.98096 13.27172,0.82102 -11.6675,-11.72473 -26.46079,-19.86778 -40.6297,-28.31321 -1.48099,-0.88277 1.85927,3.28991 1.50175,4.99088 -0.62436,2.97045 -2.50662,5.55827 -4.24019,8.03756 -5.74396,8.21479 -11.45945,12.71505 -18.82304,19.55683 -8.35126,6.06693 -14.53503,11.63689 -24.44647,14.88905 -2.60915,0.85612 -10.27249,-1.08382 -8.19711,0.73057 98.10894,85.7714 36.68212,45.86584 47.00674,27.57736 1.43281,-2.53799 3.52209,-4.63399 5.28311,-6.95098 15.70383,-17.80132 31.52192,-36.02768 51.27,-49.38198 -16.48592,-10.38646 -32.2841,-21.98407 -49.45777,-31.15935 -1.28176,-0.6848 -0.26794,2.95129 -0.75499,4.33246 -0.97451,2.76351 -2.3088,5.38619 -3.5988,8.01408 -6.54031,13.32352 -14.13991,26.10181 -21.98252,38.67016 -6.65259,9.94189 -10.09448,15.43348 -17.10098,24.69863 -1.87307,2.47691 -8.15981,5.16557 -5.85776,7.23968 81.69739,73.60758 39.82068,48.27156 51.20082,29.40785 1.06215,-1.76063 2.32853,-3.38648 3.49281,-5.07973 4.43627,-7.2139 8.49998,-14.51069 12.34467,-22.0672 1.24763,-2.45214 6.73575,-13.55374 8.2615,-16.01937 1.37575,-2.22324 3.07843,-4.22144 4.61766,-6.33217 18.61065,-14.20839 7.11278,-3.69461 -45.37596,-33.06915 -1.1846,-0.66293 1.28661,2.47516 1.46225,3.83313 0.56064,4.33476 -0.59511,12.73218 -1.14306,16.58347 -0.52674,3.70223 -1.21179,7.37964 -1.81769,11.06946 -2.85118,12.60865 -5.52539,24.87143 -12.78038,35.81226 -1.47454,2.22368 -7.30229,4.25211 -5.28962,5.99114 5.71466,4.93773 66.03905,41.77645 44.3488,28.52005 -0.31452,-1.9355 -0.91883,-3.8452 -0.94356,-5.8065 -0.0888,-7.05009 2.28665,-18.12646 4.69506,-24.71304 0.78943,-2.15893 4.7279,-4.81264 2.9377,-6.23347 -15.52076,-12.31844 -33.58525,-20.94576 -50.37787,-31.41864 0.64288,1.18573 1.77895,2.21331 1.92866,3.55721 0.39644,3.55892 -1.77534,19.74389 -2.0781,21.72323 -2.5394,16.60201 -6.25252,33.04219 -12.47312,48.6672 -2.72498,6.17717 -7.04961,16.86184 -10.9804,22.98121 -1.26298,1.96616 -6.32604,3.91647 -4.50102,5.36194 15.30924,12.12541 33.2558,20.3884 49.88369,30.58259 -0.25662,-1.51509 -0.8907,-3.01299 -0.76987,-4.5453 0.23997,-3.04389 1.22364,-5.98032 1.83546,-8.97047 1.18869,-4.03152 2.16809,-8.13234 3.56606,-12.09457 3.32899,-9.43524 7.68676,-19.27195 12.94696,-27.77818 2.42418,-3.92015 5.09997,-7.70806 8.12384,-11.17562 2.08712,-2.39336 9.45628,-4.16007 7.12149,-6.30651 -14.07266,-12.93727 -31.97606,-20.8273 -47.96409,-31.24095 0.53466,1.04955 1.43557,1.98026 1.60401,3.14863 0.61884,4.29255 -0.97156,12.74339 -1.74906,16.38535 -2.43554,11.40836 -6.08082,22.55325 -11.31651,32.96962 -1.47224,2.38217 -2.72525,4.91827 -4.41667,7.14651 -0.63234,0.83304 -3.32574,1.33151 -2.4676,1.9227 86.10492,59.32035 45.84335,45.31856 48.67852,21.277 0.31759,-2.69313 1.0637,-5.31665 1.59553,-7.97498 2.47145,-10.35565 5.06661,-20.58636 9.30613,-30.38684 1.3261,-3.06553 2.77604,-6.08761 4.46192,-8.96654 1.29565,-2.21255 6.40356,-4.60933 4.45544,-6.26137 -15.10039,-12.80541 -33.20687,-21.46697 -49.81027,-32.20046 2.88109,1.07855 2.26475,0.20276 1.1284,4.98109 -2.46617,10.37021 -7.78684,19.86756 -10.92529,30.0158 -2.5004,6.28977 -3.57574,9.99611 -7.37369,15.62742 -1.20736,1.79017 -5.91367,3.58618 -4.21555,4.9073 15.47134,12.03647 33.3945,20.44681 50.04521,30.7475 0.62398,0.38603 -1.72081,-0.30017 -1.95905,-0.99974 -0.52005,-1.52726 -0.021,-3.23058 -0.0315,-4.84587 1.69356,-9.12548 3.69625,-16.69472 7.69827,-25.17824 1.2394,-2.62733 2.84407,-5.06222 4.2143,-7.6222 0.97909,-1.82924 4.53355,-4.37471 2.83271,-5.54369 -16.54193,-11.36919 -35.20547,-19.20282 -52.80822,-28.80422 -4.33321,13.32028 -9.49929,26.46319 -17.9904,37.71451 -2.06382,2.17311 -3.84421,4.66389 -6.19149,6.51935 -1.46136,1.15515 -6.5216,1.22577 -5.04847,2.3655 15.10188,11.68403 32.08516,20.64273 48.12775,30.96408 -0.38568,-1.25085 -1.22484,-2.44405 -1.15707,-3.75254 0.277,-5.34938 3.48719,-10.56249 5.68525,-15.11744 1.61073,-2.70712 3.18278,-5.43817 4.83219,-8.12135 1.45876,-2.37306 6.49722,-5.12438 4.49123,-7.04556 -45.4062,-43.48638 -32.84882,-43.545 -56.80515,-29.31584 -3.13586,1.86258 -6.31706,3.64596 -9.47561,5.46894 -9.05623,4.54695 -16.70294,8.93313 -26.64917,11.53293 -4.79716,1.25391 -17.67609,-1.78907 -14.70128,2.21944 73.59438,99.16763 30.74609,41.51709 41.79689,27.26383 2.07215,-2.67264 4.84904,-4.69948 7.27356,-7.04923 3.80712,-2.8649 7.48132,-5.92002 11.42134,-8.59468 9.84067,-6.68028 19.80376,-12.35391 30.71568,-17.07837 4.78752,-2.07282 9.63443,-4.13396 14.70332,-5.34156 3.33276,-0.79398 12.77186,1.74347 10.25438,-0.60431 -13.24454,-12.35182 -29.57926,-20.80718 -44.3689,-31.21077 -0.11914,2.15708 0.42865,4.46247 -0.35739,6.47123 -2.64246,6.75286 -12.5608,19.12876 -16.6896,23.74943 -6.21139,6.95139 -17.3546,18.07771 -25.97915,22.49362 -2.77361,1.42013 -6.10478,1.19064 -9.15716,1.78595 15.378,10.64799 30.04386,22.4338 46.13403,31.94392 1.26237,0.74614 -0.0769,-3.03212 0.44286,-4.41458 0.91823,-2.44216 2.42129,-4.62094 3.78802,-6.838 5.72316,-9.28413 12.65172,-17.71531 19.12094,-26.45625 2.17451,-2.75287 4.29113,-5.55356 6.52355,-8.25859 1.84313,-2.23338 7.71294,-4.47489 5.69965,-6.55251 -56.03462,-57.82543 -32.33859,-46.22454 -53.22632,-29.23451 -2.90607,2.36381 -5.97939,4.5091 -8.9691,6.76365 -14.24146,9.9324 -28.37043,19.44312 -44.04559,26.99101 -5.16387,2.48651 -10.47808,4.64485 -15.78665,6.79697 -3.7715,1.52897 -14.06529,1.10133 -11.44497,4.24279 12.27298,14.71387 29.88172,23.84871 44.8226,35.77308 0.0868,-0.7138 -0.17049,-1.56951 0.26057,-2.14136 1.69193,-2.24453 8.51456,-5.88832 10.07811,-6.73047 7.41012,-3.99126 15.45421,-6.51176 22.40324,-11.36445 -16.45044,-10.22387 -32.25264,-21.60133 -49.35131,-30.67156 -1.46187,-0.77547 -2.94434,1.5274 -4.49125,2.11006 -14.20755,5.35133 -29.48121,6.84565 -44.47553,4.77009 -25.707468,-7.63528 -15.17175,-5.555 29.78913,22.25118 1.18106,0.73043 -2.71185,-1.22436 -3.36842,-2.45724 -1.91207,-3.59028 1.18741,-11.73515 2.48685,-15.08165 1.66804,-2.83318 2.4364,-5.10135 5.33602,-6.80421 2.98785,-1.75466 6.79634,-0.17169 9.65567,0.80602 -14.82452,-8.91083 -29.64904,-17.82166 -44.47355,-26.73249 2.43284,0.9773 4.97323,1.39211 6.20528,4.15467 2.62907,5.89494 -2.39433,16.99212 -4.05788,22.66355 -0.93219,2.0078 -1.71424,4.09425 -2.79659,6.02343 -0.9221,1.64356 -4.65647,3.47934 -3.19577,4.6574 15.21845,12.27352 32.62079,21.48517 48.93119,32.22775 0.16454,-0.82643 0.15736,-1.70794 0.49363,-2.47928 1.37477,-3.15348 3.33732,-5.07078 5.52369,-7.6858 1.39235,-1.09522 2.65773,-2.37945 4.17702,-3.28566 1.12197,-0.66921 4.74164,-0.65622 3.65853,-1.38799 -15.57147,-10.52047 -32.65711,-18.58869 -48.40192,-28.84173 -0.78306,-0.50992 1.71917,-1.1888 2.6246,-0.96852 1.65757,0.40327 0.32219,5.60701 -0.28105,5.16636 -6.14978,11.69976 -13.43237,22.81603 -21.41927,33.30919 15.83276,11.91499 31.13986,24.58035 47.49827,35.74494 0.79235,0.54076 1.53599,-1.15401 2.26041,-1.78478 1.20497,-1.04919 2.31274,-2.20963 3.52379,-3.25164 8.53255,-7.34149 17.61745,-13.99661 26.78003,-20.50038 6.70252,-4.9234 12.03562,-7.75043 16.68448,-14.62472 1.22565,-1.81239 1.99711,-3.93876 2.54673,-6.06315 0.44161,-1.70694 1.79511,-4.23686 0.38758,-5.27878 -42.4919,-31.45449 -31.79551,-29.39404 -54.48344,-32.78471 -1.70837,-0.20131 -5.66267,-0.58 -7.30094,-1.12833 -1.04517,-0.34981 -3.86566,-2.12328 -2.9441,-1.51405 15.51653,10.25784 31.32336,20.0656 46.74428,30.46995 0.69854,0.47129 -2.23074,0.2336 -2.45144,-0.58598 -0.36279,-1.34717 0.81021,-2.66952 1.21531,-4.00429 1.91547,-1.95069 3.64465,-4.10872 5.74639,-5.85207 6.22112,-5.16025 16.73933,-11.58396 23.42873,-15.32784 16.372,-9.16294 33.46579,-17.12042 51.86416,-21.08723 -13.20547,-11.54806 -25.95184,-23.65642 -39.61645,-34.64422 -0.90634,-0.7288 1.4645,2.47147 0.78825,3.42217 -1.97926,2.78246 -5.05703,4.59575 -7.8609,6.52065 -17.88657,12.27931 -38.08524,20.75201 -58.07642,28.73877 -8.29551,2.47551 -16.42146,5.63223 -24.88652,7.42653 -6.35132,1.34626 -23.28315,-3.28356 -19.37157,1.95468 11.04262,14.78782 28.6202,23.5323 44.83877,32.14996 2.25945,1.20054 3.42033,-3.88197 5.472,-5.41757 6.70501,-5.0185 23.17035,-14.17473 29.44972,-17.80174 16.92472,-8.38174 27.88747,-14.57604 46.1549,-20.34481 7.92615,-2.50306 27.00239,2.15946 24.24934,-5.76564 -44.35455,-127.68158 -26.60477,-38.46434 -41.52155,-30.59401 -4.63004,2.44288 -9.77004,3.73343 -14.65506,5.60014 -18.1887,5.35638 -26.57599,8.53627 -46.0573,11.03153 -8.53973,1.09381 -26.00373,-7.07764 -25.77352,1.6276 0.31233,11.80975 18.79507,14.32371 26.43175,23.2614 2.7736,3.24609 -20.24558,-3.94862 -8.79268,-9.30425 1.58237,-3.48586 2.9837,-7.0618 4.74714,-10.45754 4.6868,-9.02514 8.13134,-14.05309 14.42149,-22.0099 2.2367,-2.82935 9.52572,-5.57569 7.05426,-8.19749 -39.05169,-41.42699 -31.3168,-44.76786 -50.699,-33.57653 -4.63477,2.95288 -9.27213,6.26071 -14.31804,8.46923 -1.47454,0.6454 -5.85921,0.51919 -4.58373,1.50754 47.30018,36.65228 38.13769,48.9229 50.36522,29.91841 1.84145,-1.35331 3.53726,-2.93714 5.5244,-4.05992 5.16431,-2.91799 14.51347,-6.6051 20.1597,-7.81792 3.52137,-0.75638 13.41034,1.31325 10.74161,-1.13088 -30.0728,-27.54157 -61.69311,-31.42353 -40.10076,-28.42621 -0.32353,1.71538 -0.36761,3.50984 -0.97058,5.14616 -2.16677,5.8799 -7.18266,13.47011 -10.51041,18.26133 -10.90181,15.69621 -23.17803,30.43129 -36.63388,43.94566 -5.63033,4.94044 -10.99815,10.20482 -16.89098,14.82136 -4.93246,3.86418 -18.348522,4.946 -15.524985,10.57385 8.336179,16.61567 26.229295,26.20089 40.116225,38.44139 0.99343,0.87566 -1.40977,-2.65344 -0.91721,-3.88978 2.32893,-5.84565 14.02642,-15.78057 17.00961,-18.64889 5.25482,-4.46828 10.34102,-9.14774 15.76447,-13.40481 12.97204,-10.18227 26.77728,-19.69464 41.14233,-27.76063 6.25075,-3.50982 21.87886,-2.80666 19.26369,-9.53781 -6.40848,-16.49474 -24.97254,-24.86297 -37.45884,-37.29446 0.18976,0.91333 0.37951,1.82668 0.56927,2.74001 -1.51904,1.85508 -2.93625,3.80054 -4.55706,5.56525 -5.41168,5.89207 -14.22317,14.16034 -19.82997,19.26593 -13.54199,12.33145 -27.48444,24.26987 -42.41209,34.86627 -7.31842,5.10835 -11.9949,9.34784 -20.538086,11.91054 -2.334453,0.70027 -9.191541,-0.8261 -7.272803,0.69048 13.445999,10.62791 28.712559,18.66361 43.231759,27.73199 1.36924,0.85519 -2.96653,-1.65246 -3.75156,-3.07351 -1.07689,-1.94926 -1.03012,-4.3428 -1.54518,-6.5142 -0.0503,-21.95058 2.32075,-43.73917 7.31616,-65.12777 1.71826,-5.96753 3.26656,-10.84573 6.29791,-16.24232 0.63688,-1.13382 1.32062,-2.24046 2.01315,-3.3404 0.65098,-1.03396 2.98894,-2.3285 2.01654,-3.05998 -16.0737,-12.09142 -33.53288,-22.17377 -50.299312,-33.26064 -3.474271,3.45214 -8.214269,5.33536 -11.499836,9.05019 -3.670437,4.65078 -7.022896,9.55458 -9.232123,15.1117 -1.93065,6.41112 -2.652881,13.11947 -4.102298,19.6505 -0.742351,4.20109 -1.343444,8.43127 -2.259028,12.59913 -0.301982,1.37464 -0.749826,2.71711 -0.989421,4.10427 -0.374197,2.16648 -0.198936,4.40606 -0.645102,6.56554 0.291024,4.66619 0.855274,9.29342 1.637303,13.89574 0.651798,4.71802 2.104875,9.30642 2.560469,14.07423 1.493306,6.60085 2.322819,13.28912 3.4039,19.97047 1.900933,6.8132 5.040458,13.29806 5.546476,20.462 0.241551,2.66074 0.478603,4.33018 0.399291,6.97984 -0.02583,0.86192 -0.105075,1.72451 -0.245859,2.57496 -0.06344,0.38329 -0.701322,0.92128 -0.363539,1.10636 46.765009,25.6248 72.556689,34.90602 52.635759,27.70233 -1.37648,-4.38765 -1.88479,-9.07929 -0.98734,-13.62319 0.21483,-1.21351 0.0908,-2.83329 0.77559,-4.23889 0.13231,-0.21574 0.16753,-0.75022 0.39691,-0.64723 0.2371,0.10647 0.12934,0.90477 -0.0993,0.78085 -17.15097,-9.29365 -34.279499,-18.64447 -51.10551,-28.52736 -0.542265,-0.31851 1.231814,-0.57825 1.836689,-0.41111 1.155407,0.31928 1.602196,2.38928 1.88659,3.18317 0.377341,0.9608 0.899369,1.87792 1.118939,2.88764 0.09752,0.44846 -0.311344,1.16221 0.09115,1.37448 37.476722,19.76505 58.809262,47.36167 53.665322,24.40998 -0.32725,-3.95731 0.38299,0.93938 -1.22323,0.0923 -17.29906,-9.12272 -34.06031,-19.25355 -51.045662,-28.96085 -0.679502,-0.38833 1.555188,0.45799 2.12213,1.00057 1.162705,1.11275 2.978066,4.99148 3.629028,6.26705 3.620648,9.21319 5.019104,18.82521 4.513639,28.75579 -0.429616,16.46282 -1.709947,33.02524 -6.941303,48.74628 -0.843326,2.35498 -1.655741,4.72152 -2.529976,7.06494 -0.48478,1.29947 -3.673741,9.21551 -4.159819,10.99486 -6.202339,22.70456 30.772153,35.05395 52.300533,36.9404 7.09668,-0.37137 11.08307,-3.96187 15.12154,-9.6348 3.76612,-5.98411 8.49702,-10.71359 14.59357,-14.33279 6.92524,-4.71994 14.12724,-9.6137 16.67825,-18.12836 0.71775,-10.87673 -0.86128,-21.64204 -1.53635,-32.48528 -0.25931,-6.44794 -0.43106,-9.04702 -0.43264,-15.40633 -5e-4,-2.05654 1.74509,-4.94966 0.10786,-6.16864 -0.0996,-0.0742 -44.77344,-47.35907 -54.45727,-29.27736 -0.8945,1.67018 -1.19144,3.60291 -1.78716,5.40438 -2.77155,10.65053 -5.25345,21.48642 -8.9457,31.86171 -1.236,3.47317 -2.42417,7.00239 -4.20342,10.22518 -0.86336,1.5638 -5.05635,2.89628 -3.61523,3.93684 15.9617,11.52517 33.83527,20.06599 50.75292,30.099 -0.17221,-1.30258 -0.48576,-2.59392 -0.51663,-3.90773 -0.28681,-12.20837 3.33913,-24.30304 6.54563,-35.91367 1.3545,-3.75511 2.33824,-7.35495 4.6263,-10.66797 0.45728,-0.66213 2.50571,-1.12245 1.83385,-1.55882 -16.50612,-10.7205 -33.81108,-20.12663 -50.71662,-30.18993 0.33319,0.74509 0.90135,1.42353 0.99955,2.23526 0.16731,1.38294 -0.14948,2.78239 -0.22422,4.17359 -2.5584,12.50895 -6.81461,24.62018 -12.14034,36.19641 -1.39116,2.52934 -2.69977,5.107 -4.17351,7.58799 -5.03511,8.47644 -11.401966,16.04051 -16.948183,24.15908 -0.763069,0.85833 -1.458825,1.78319 -2.289205,2.57501 -0.494666,0.47169 -1.207744,1.70431 -1.663204,1.19383 -0.518767,-0.58147 0.07007,-2.61694 0.741509,-2.22691 17.015763,9.88442 33.339893,20.94238 49.874663,31.62969 0.27619,0.1785 -0.73486,0.1885 -0.98283,-0.0283 -0.29375,-0.25683 -0.22596,-0.75156 -0.33893,-1.12732 0.34951,-3.91186 1.09321,-5.67057 5.17813,-5.73073 3.01773,0.24041 6.10544,0.40157 8.88882,1.72981 0.73987,0.34868 8.39141,4.676 4.34768,2.30309 -83.098333,-48.76338 -60.634081,-36.19528 -43.64864,-25.45289 17.31176,10.22624 34.54402,20.59147 51.93524,30.67873 5.28735,3.06677 12.22522,1.76836 17.96188,2.57724 5.73485,0.38936 11.44078,0.83241 17.05182,2.19174 4.81349,1.1661 3.1856,1.25429 7.06855,1.96362 0.7418,0.13551 1.49674,0.18293 2.24508,0.27439 6.45491,-0.44773 8.85281,-3.15573 8.58645,-9.69369 0.0514,-4.98046 -0.48621,-9.94071 -0.74122,-14.91059 -0.33738,-7.15969 -1.01563,-14.32752 -2.42843,-21.35852 -1.09594,-5.0629 -2.34058,-10.17707 -2.83906,-15.32391 0.27418,-0.86355 0.34922,-1.54961 1.0127,-2.1918 2.09426,-2.0271 5.61104,-2.16833 8.17738,-3.05256 10.20857,-1.8761 20.51686,-2.73831 30.89668,-2.76285 12.57776,-0.2326 25.26589,-0.36049 37.70714,1.80147 -15.97492,-11.90161 -31.88004,-23.89972 -47.92478,-35.70484 -0.10437,-0.0768 0.039,0.33985 -0.0828,0.38262 -0.5627,0.19741 -1.17519,0.20069 -1.76722,0.26642 -3.42965,0.38071 -6.88197,0.34786 -10.32675,0.35276 -9.71651,0.38292 -19.46003,1.0475 -29.17127,0.17315 -2.17553,-0.35322 -4.37908,-0.56102 -6.52663,-1.05963 -20.03705,-4.65212 -34.49543,-28.18048 41.84207,26.91145 2.8096,2.02765 -6.94902,4.31878 -1.47128,2.80821 7.04456,-1.00599 14.11326,-1.36939 21.2242,-1.50435 1.18091,-0.14979 2.37991,-0.19272 3.54272,-0.44939 4.5124,-0.99594 8.23113,-4.58917 11.8593,-7.19087 4.57824,-3.30778 9.60305,-6.82915 15.25054,-7.93527 18.58745,-3.64056 47.80854,25.58475 -41.18195,-27.62937 1.29172,0.21619 2.74365,-0.0179 3.87512,0.64855 2.65699,1.56502 4.41329,6.24139 5.3085,8.7269 2.36933,6.57843 3.14028,13.55862 5.45558,20.15156 0.5465,1.97849 1.07508,3.96211 1.6395,5.93546 0.44476,1.55494 0.0336,3.78662 1.38796,4.64878 17.24667,10.97958 34.97606,21.28194 53.34896,30.19787 1.17863,0.57195 1.87734,-1.93339 2.3774,-3.15526 0.49531,-1.21026 1.44446,-10.81236 1.46333,-10.98207 1.77433,-12.71473 3.69961,-25.80141 7.80389,-38.00811 0.29755,-0.88494 0.75467,-1.70646 1.13201,-2.55966 -17.50442,-9.65211 -35.00884,-19.30419 -52.51326,-28.9563 0.40709,0.41227 0.98817,0.70396 1.22128,1.23685 0.46973,1.07367 0.62426,2.26617 0.81771,3.42388 0.9431,5.6443 0.64326,11.35617 0.22589,17.03435 -1.18714,10.68861 -2.97439,21.23332 -7.41494,31.10832 -1.42475,3.21705 -2.70597,6.49897 -4.1765,9.69488 -3.14041,6.82503 -7.13747,13.20654 -11.00235,19.62245 -3.09547,4.45569 -2.673,4.03905 -6.06584,8.17751 -2.24437,2.7376 -5.18652,5.44212 -6.79232,8.67042 -0.54327,1.09218 -0.84548,2.29087 -1.2682,3.43631 13.08168,8.15828 38.8349,40.5929 60.81014,29.7959 4.28289,-2.50063 7.99719,-5.90555 12.58042,-7.88681 4.53854,-1.62067 8.73807,-1.6825 13.50019,-1.52799 5.17417,-0.14186 10.34809,0.13298 15.51963,-0.11892 5.51529,-0.49704 10.81289,-1.47349 15.29559,-5.04961 1.65526,-1.72713 2.7862,-2.74019 4.08492,-4.82403 2.92579,-4.69449 4.00681,-10.27894 5.79367,-15.4426 1.85813,-8.56747 4.25637,-17.0128 6.06036,-25.59869 0.88638,-2.78934 1.70876,-7.12437 3.28011,-9.65337 0.24692,-0.3974 -0.0204,1.5764 -0.42229,1.34178 -48.44725,-28.2842 -63.50339,-46.39837 -49.3647,-29.67416 0.0566,10.39237 -3.62916,20.2808 -7.32006,29.84391 -2.78889,6.91025 -8.13388,18.08489 -8.19948,25.52658 -0.01,1.12599 0.35379,2.22343 0.5307,3.33516 0.79959,1.6171 2.60224,4.13901 3.00506,5.79329 0.12251,0.50315 -0.34494,1.32156 0.1147,1.55023 55.1379,27.43346 50.01994,45.6404 55.37979,24.23813 -1.20923,-4.65685 -0.85383,-9.47712 -1.99555,-14.13234 -1.66823,-4.72743 -3.41907,-9.3952 -5.46533,-13.96347 -2.18341,-3.72866 -2.08539,-8.09378 -2.14593,-12.31865 0.0486,-4.22133 0.2374,-8.52645 1.4246,-12.60017 1.42196,-3.76776 3.44693,-7.3192 5.74562,-10.60465 2.08773,-3.88936 4.03472,-7.86049 6.00369,-11.81151 1.91784,-4.32997 3.36846,-8.83489 6.94454,-12.15656 4.08067,-4.1753 8.73287,-7.60083 13.88964,-10.31224 5.07835,-2.548 10.46952,-4.77064 11.45542,-11.14221 -0.01,-2.36425 -0.0447,-5.22305 -0.95155,-7.46027 -8.14247,-20.08626 -106.0132,14.22143 -55.08603,-33.60582 -4.86087,-1.90128 -9.97167,-2.8197 -15.08883,-3.74516 -2.79883,-0.36156 -5.69294,-0.56798 -8.40827,-1.39986 -1.04492,-0.32014 -4.00367,-1.72943 -3.06794,-1.16037 45.97591,27.96055 64.38747,28.33526 43.46474,27.38273 -0.67355,-0.29551 -1.65961,-0.23986 -2.02065,-0.88658 -1.09946,-1.96941 1.51069,-5.55664 2.12993,-6.60588 3.14465,-5.32826 6.90021,-10.25652 10.49375,-15.27265 1.05864,-1.6697 5.28793,-8.20612 6.15472,-10.09279 0.729,-1.58674 1.16401,-3.29721 1.65774,-4.97415 2.05684,-6.98593 3.32858,-14.20251 5.82354,-21.06267 6.91204,-22.47046 13.86531,-45.38075 26.42633,-65.38339 17.1432,-21.65021 11.50718,-9.82456 -44.54193,-37.31386 -1.55661,-0.76343 -1.11457,3.32077 -1.84439,4.90748 -4.34353,9.44337 -10.18218,18.10246 -15.8694,26.74063 -2.81429,3.86892 -9.20046,13.31729 -13.29924,16.58505 -1.31088,1.04509 -6.04483,0.67485 -4.71726,1.69813 92.56136,71.34615 44.81196,46.01847 46.84182,25.01367 0.37032,-3.83196 1.58629,-7.53135 2.37944,-11.29705 5.06713,-16.30683 10.09441,-32.0445 19.28657,-46.61866 2.44987,-3.88427 11.44794,-7.43695 8.42441,-10.88282 -12.60413,-14.36469 -30.25071,-23.4295 -46.79685,-32.849493 -1.87422,-1.067021 0.34926,4.337012 0.52389,6.505521 -0.85644,4.323882 -1.48954,8.699252 -2.56933,12.971662 -7.1731,28.38159 -19.24964,55.97991 -34.28184,80.98362 -3.12415,5.19653 -6.75566,10.06295 -10.1335,15.09444 -20.69981,21.69011 -15.95192,10.94748 39.29505,40.26867 1.91539,1.01656 -1.05421,-4.3654 -0.70807,-6.5254 0.69556,-4.34052 2.20145,-8.52793 3.77703,-12.62603 4.97773,-12.94711 10.84945,-23.00381 17.37886,-35.29168 3.84834,-5.95139 7.37796,-12.12665 11.54503,-17.85418 3.44215,-4.73113 14.40404,-8.5377 11.24052,-13.4639 -58.36784,-90.889308 -35.55009,-52.77243 -45.57496,-34.87648 -1.03939,1.85546 -8.9996,14.3147 -9.19267,14.61865 -8.67345,13.56527 -17.27606,27.28882 -26.82259,40.25067 -9.47374,12.86302 -13.77673,17.73925 -24.44624,29.20771 -3.22371,3.46508 -6.58065,6.80078 -9.87097,10.20118 16.41202,10.88064 32.12042,22.93401 49.23604,32.64193 1.30559,0.74053 2.42565,-1.77505 3.65112,-2.64453 2.63128,-1.8669 5.22957,-3.78417 7.91888,-5.56444 14.53285,-9.62047 29.76971,-18.06206 46.2092,-23.91527 5.97511,-1.60528 11.82293,-3.81427 17.92536,-4.81586 4.05994,-0.66634 15.31072,2.72459 12.33814,-0.15122 -71.11143,-68.796 -40.52594,-46.49155 -44.8455,-27.36001 -0.7391,3.2736 -2.78891,8.65164 -3.83312,11.57836 -6.92452,19.73506 -15.03217,38.94746 -24.44945,57.61045 -1.41584,2.58683 -2.80804,5.18705 -4.24751,7.76049 -1.1235,2.00857 -5.28041,4.61975 -3.44098,5.98478 66.71823,49.51143 47.106,48.3864 52.55687,25.95408 1.8885,-7.77187 3.20979,-11.26292 5.83956,-19.46865 4.24175,-11.71022 7.1787,-20.23479 12.07259,-31.87975 8.67275,-20.63675 18.9892,-40.45822 29.82355,-60.00018 1.4608,-2.42109 2.85617,-4.88385 4.38239,-7.26328 0.91324,-1.42378 4.26914,-3.11489 2.93136,-4.13909 -15.60981,-11.9505 -33.1289,-21.10722 -49.69334,-31.66083 0.10484,0.73861 0.44215,1.48088 0.3145,2.2158 -0.48058,2.76706 -2.8207,7.04769 -3.93243,9.33723 -6.76785,10.89157 -14.62745,21.1525 -25.43586,28.23954 -13.74099,8.40666 4.10616,-2.39362 -9.89282,5.69486 -4.49788,2.59883 -8.66257,5.67948 -12.98394,8.55044 -1.50275,0.99835 -3.04554,1.93359 -4.56831,2.90038 -7.76688,6.04315 -14.72303,13.08211 -22.64999,18.93733 -10.11463,7.61996 -19.74588,15.78979 -28.05547,25.45047 -5.79815,6.18265 -11.44676,12.44684 -17.00129,18.85362 -3.51161,4.05045 -5.82893,6.31866 -8.64135,10.73229 -0.84827,1.33119 -1.48409,2.78924 -2.22612,4.18387 -0.34539,1.18653 -0.82458,2.34131 -1.03616,3.55956 -4.18446,24.09337 37.00509,36.30788 58.91788,33.1836 7.5088,-0.71417 15.05643,-1.11884 22.48744,-2.4726 6.92956,-1.18399 13.83477,-2.51761 20.75361,-3.75128 6.23865,-1.10432 12.513,-2.4639 18.38354,-4.90644 8.65283,-3.75321 17.13699,-7.87847 25.81833,-11.56498 3.2444,-1.41842 6.56487,-2.6706 9.73333,-4.25501 4.43637,-2.21846 7.9841,-5.62782 11.74418,-8.80133 6.77845,-5.39977 13.08506,-11.31595 19.3636,-17.29665 5.95513,-5.73547 11.39144,-12.09148 15.69544,-19.203 2.60534,-5.19742 5.16795,-10.41652 7.70297,-15.64842 2.56268,-5.73058 5.43983,-11.20463 9.18203,-16.26631 2.70601,-4.75113 5.42622,-9.54721 6.838,-14.88788 0.76812,-3.27745 0.71122,-6.6336 1.26279,-9.95435 0.21964,-1.35193 0.57001,-2.68815 0.66402,-4.0549 0.20057,-2.91553 -0.44539,-5.89899 -0.4987,-8.80712 -0.75972,-6.62299 -2.88584,-13.07173 -6.37192,-18.74953 -14.34281,-19.12036 -2.68278,-4.35787 -54.48212,-34.0044 -3.93576,-2.25256 -8.93612,0.35866 -10.19671,4.40218 -1.1684,4.42581 -1.68524,9.0668 -3.96969,13.11235 -1.75147,2.76561 -5.17926,8.44709 -9.22644,7.53801 -0.62091,-0.13946 -1.13168,-0.58768 -1.69752,-0.88151 16.09664,9.71362 32.39998,19.08496 48.28992,29.14086 0.59959,0.37946 -1.50232,0.42527 -2.12034,0.0775 -0.55185,-0.31062 -0.69553,-1.10274 -0.81564,-1.72997 -0.5939,-3.10158 0.62244,-6.41695 1.43194,-9.32434 0.6304,-2.38291 0.92782,-3.06808 1.14867,-5.42706 0.23915,-2.55445 -0.0196,-5.17466 0.71795,-7.67585 1.47705,-4.94464 4.41949,-9.15921 7.16108,-13.4632 3.82328,-5.82055 7.99583,-11.39516 11.40082,-17.48737 3.33984,-5.8852 4.34008,-11.03012 4.04494,-17.80082 0.0973,-2.40884 0.007,-3.235262 0.55626,-5.538487 0.24532,-1.028321 1.81692,-2.516651 0.90706,-3.037969 C 433.85568,67.824495 432.55827,47.899128 424.60033,69.6123 c -0.40775,0.922341 -3.33659,7.203741 -4.1927,6.785198 -0.19909,-0.09733 -0.24866,-0.369971 -0.373,-0.554957 -2.12727,-0.210391 -4.27962,-0.06016 -6.41328,-0.03276 -3.56289,0.08163 -7.12038,0.254017 -10.68241,0.364823 -4.84982,0.118094 -9.54944,0.38163 -14.16631,2.092155 -10.33101,2.763261 -20.70762,5.454613 -31.40442,6.306233 -4.56986,0.74027 -9.11145,0.869972 -13.69363,1.314124 -4.28779,0.95632 -8.62848,2.492576 -11.11275,6.415992 -2.46587,4.351242 -5.04778,9.389052 -2.72061,14.327812 17.27168,10.33375 34.53439,20.68287 51.81503,31.00126 0.60802,0.36305 2.45961,1.40367 1.85039,1.04269 -16.42736,-9.73392 -33.33951,-18.67104 -49.30522,-29.16175 -0.32743,-0.21514 3.52782,-3.34253 3.72164,-3.40587 0.34472,-0.11265 -0.31088,0.66205 -0.46633,0.99308 -4.17874,2.77379 -8.70246,4.21632 -13.44961,5.77636 -5.91396,1.94349 -11.88135,3.76714 -17.97583,5.04357 -28.1675,-0.42205 65.29605,16.35892 45.18034,32.96975 -0.21286,0.17579 -0.19797,-0.6066 -0.0386,-0.83302 0.72594,-1.03091 3.98384,-3.40305 4.69324,-3.95193 7.93647,-5.23189 15.26032,-11.5099 20.98878,-19.19531 1.13888,-2.53579 2.26279,-4.51606 2.61844,-7.32835 0.51922,-4.1059 -1.50507,-8.13292 -2.73786,-11.89297 -2.53365,-5.20768 -6.28862,-9.640618 -11.05395,-12.903729 -18.61869,-10.836506 -39.67123,-28.985176 -62.95432,-33.478993 -3.33407,0.194963 -6.6114,0.369146 -9.44823,2.389796 -2.84035,2.338594 -4.95619,5.257035 -6.1925,8.771014 -1.59581,4.197893 -2.32227,8.587949 -3.0163,13.015387 -1.25296,5.564808 -2.07693,11.165352 -2.85073,16.815425 -0.60467,3.10119 -0.7337,6.19327 -0.60118,9.35043 -0.0232,4.01965 -0.17198,8.04182 -0.91335,12.0041 -0.60606,3.11377 -1.22758,6.21525 -1.85204,9.32443 -0.15254,0.75942 -0.43169,1.49545 -0.51387,2.2659 -0.0568,0.53262 0.0674,1.06924 0.10119,1.60385 3.51952,23.10256 36.35327,39.75027 58.03122,33.09546 4.85196,-2.47481 9.18046,-6.11137 14.60395,-7.29396 0.66652,-0.16153 1.31651,-0.42756 1.99958,-0.4846 0.51489,-0.043 1.98437,0.45336 1.53864,0.18906 -27.32894,-16.20468 -64.23998,-14.42617 -48.95278,-32.55815 0.24941,-0.29584 1.14092,3.06013 -0.45377,1.07238 -3.91932,3.56316 -8.79208,5.34089 -13.65464,7.21473 -4.62754,1.49986 -9.48757,1.91518 -14.2037,3.06484 -4.61495,0.91142 -9.21172,1.70011 -13.94708,1.42004 -6.57403,0.20331 -13.12165,0.0726 -19.67686,-0.51693 -7.80314,-0.10401 -15.60864,-0.27487 -23.38802,-0.95539 -9.18753,-0.69929 -18.40136,-0.34962 -27.60427,-0.79998 -9.69792,-0.43027 -19.56242,-0.88376 -29.20417,0.36769 -8.74257,1.51312 -17.26774,4.0916 -25.97557,5.79722 -9.86102,2.61667 -20.06006,4.46656 -29.29304,8.98776 -6.63363,4.3058 -13.101587,8.92808 -18.342895,14.9546 -4.100275,3.96723 -8.42023,8.24476 -13.696769,10.53009 z" /><g
   id="g8"
   transform="translate(6.6303937,-10.440056)"
   style="fill:url(#linearGradient8);fill-opacity:1">&#10;	<g
   id="g7"
   style="fill:url(#linearGradient8);fill-opacity:1">&#10;		<g
   id="g6"
   style="fill:url(#linearGradient8);fill-opacity:1">&#10;			<circle
   cx="140.563"
   cy="244.134"
   r="9.4840002"
   id="circle1"
   style="fill:url(#linearGradient8);fill-opacity:1" />&#10;			<path
   d="m 438.633,199.94 c -4.556,0 -8.248,3.693 -8.248,8.248 v 19.68 c 0,4.555 3.692,8.248 8.248,8.248 4.556,0 8.248,-3.693 8.248,-8.248 v -19.68 c -10e-4,-4.555 -3.692,-8.248 -8.248,-8.248 z"
   id="path1"
   style="fill:url(#linearGradient8);fill-opacity:1" />&#10;			<path
   d="m 475.852,199.94 c -4.555,0 -8.248,3.693 -8.248,8.248 v 19.68 c 0,4.555 3.693,8.248 8.248,8.248 4.556,0 8.248,-3.693 8.248,-8.248 v -19.68 c 0,-4.555 -3.693,-8.248 -8.248,-8.248 z"
   id="path2"
   style="fill:url(#linearGradient8);fill-opacity:1" />&#10;			<path
   d="m 492.7,182.699 c -3.305,-12.686 -8.608,-24.77 -15.636,-35.787 6.389,-23.12 5.81,-53.715 -10.428,-70.139 -0.485,-0.492 -1.03,-0.918 -1.618,-1.271 l 0.001,-10e-4 c -11.835,-7.111 -28.055,-8.973 -45.675,-5.243 -14.677,3.107 -29.155,9.877 -40.282,18.757 -2.65,-0.17 -5.307,-0.284 -7.972,-0.284 -6.208,0 -12.424,0.465 -18.538,1.37 -4.527,-3.998 -9.433,-7.653 -14.534,-10.782 -16.205,-9.941 -32.644,-13.572 -45.973,-10.082 -0.669,0.175 -1.31,0.433 -1.909,0.765 l -0.001,-10e-4 c -12.149,6.733 -20.764,19.039 -24.914,35.585 -2.749,10.962 -3.327,23.011 -1.738,34.783 H 161.458 c -34.163,0 -65.162,13.798 -87.725,36.11 -4.883,-8.2 -13.834,-13.709 -24.051,-13.709 -6.738,0 -12.927,2.395 -17.76,6.377 -1.172,-4.104 -5.318,-6.682 -9.575,-5.81 C 9.398,165.984 0,177.511 0,190.742 c 0,15.425 12.55,27.975 27.975,27.975 H 45.6 c -5.79,14.377 -8.984,30.066 -8.984,46.491 0,30.975 11.326,60.465 31.96,83.414 v 87.19 c 0,4.555 3.692,8.248 8.248,8.248 h 52.891 c 2.187,0 4.284,-0.869 5.833,-2.416 l 1.833,-1.834 1.833,1.834 c 1.547,1.547 3.644,2.416 5.833,2.416 h 35.674 c 2.187,0 4.284,-0.869 5.833,-2.416 l 1.833,-1.834 1.835,1.834 c 1.546,1.546 3.644,2.415 5.832,2.415 h 5.125 c 4.556,0 8.248,-3.693 8.248,-8.248 V 390.049 H 235 v 45.762 c 0,4.555 3.692,8.248 8.248,8.248 h 52.892 c 2.187,0 4.285,-0.87 5.833,-2.416 l 1.832,-1.833 1.833,1.833 c 1.547,1.547 3.644,2.416 5.833,2.416 h 35.676 c 2.187,0 4.285,-0.869 5.832,-2.415 l 1.835,-1.834 1.835,1.834 c 1.546,1.546 3.643,2.415 5.832,2.415 h 5.123 c 4.556,0 8.248,-3.693 8.248,-8.248 v -92.983 c 0.777,-0.975 1.545,-1.957 2.293,-2.956 51.177,-2.837 95.404,-36.388 111.916,-84.93 13.063,-7.139 21.944,-21.008 21.944,-36.915 C 512,203.223 504.3,190.189 492.7,182.699 Z M 23.836,201.438 c -4.289,-1.667 -7.34,-5.827 -7.34,-10.697 0,-4.79 2.998,-9.032 7.347,-10.712 -1.373,3.301 -2.136,6.919 -2.136,10.712 -0.002,3.788 0.759,7.399 2.129,10.697 z M 456.423,90.087 c 6.093,7.676 9.682,22.204 7.418,39.573 -4.289,-4.702 -8.926,-9.108 -13.912,-13.129 -6.786,-5.474 -14.117,-10.186 -21.832,-14.107 11.446,-8.517 21.629,-13.017 28.326,-12.337 z m -34.569,-3.545 c -3.51,2.441 -7.228,5.313 -11.15,8.64 -2.429,-0.807 -4.877,-1.555 -7.352,-2.214 6.074,-2.996 12.364,-5.122 18.502,-6.426 z M 298.485,84.723 c 1.314,-0.205 2.69,-0.308 4.112,-0.308 15.713,0 37.193,12.829 50.137,29.897 0.032,0.092 -0.002,0.197 -0.065,0.231 l -49.824,27.378 c -0.045,0.024 -0.103,0.044 -0.166,0.056 -4.718,-11.509 -12.434,-45.698 -4.194,-57.254 z M 38.201,190.742 c 0,-6.33 5.151,-11.48 11.48,-11.48 6.33,0 11.48,5.15 11.48,11.48 0,0.08 -0.015,0.158 -0.018,0.238 -2.452,3.306 -4.743,6.737 -6.865,10.281 -1.441,0.629 -3.001,0.962 -4.598,0.962 -6.328,-0.001 -11.479,-5.151 -11.479,-11.481 z m 154.728,230.519 c -3.202,-2.117 -7.556,-1.767 -10.377,1.054 l -5.249,5.25 h -18.885 v -37.552 c 1.017,0.025 2.03,0.037 3.038,0.037 h 31.472 v 31.211 z m 166.423,0 c -3.202,-2.116 -7.555,-1.767 -10.374,1.054 l -5.251,5.25 h -18.886 v -46.578 c 12.535,-5.083 24.219,-12.263 34.511,-21.086 z m 14.268,-97.715 c -2.63,0.059 -5.074,1.371 -6.578,3.53 -12.973,18.614 -31.855,32.972 -53.171,40.426 -3.309,1.158 -5.524,4.28 -5.524,7.786 v 45.978 c -1.338,-0.884 -2.916,-1.365 -4.545,-1.365 -2.187,0 -4.285,0.87 -5.833,2.416 l -5.248,5.249 h -41.228 v -45.762 c 0,-4.555 -3.692,-8.248 -8.248,-8.248 h -81.788 c -3.456,0 -6.987,-0.17 -10.498,-0.508 -2.315,-0.222 -4.614,0.543 -6.335,2.106 -1.72,1.563 -2.701,3.78 -2.701,6.104 v 40.005 c -3.203,-2.118 -7.556,-1.767 -10.375,1.052 l -5.249,5.25 H 85.071 v -82.167 c 0,-2.111 -0.809,-4.143 -2.262,-5.674 C 63.657,319.521 53.11,293.057 53.11,265.208 c 0,-59.742 48.604,-108.347 108.346,-108.347 h 111.98 c 2.538,0 4.934,-1.169 6.497,-3.167 1.564,-1.999 2.119,-4.607 1.507,-7.07 -2.236,-8.995 -2.86,-19.016 -1.728,-28.463 2.184,14.168 6.383,27.031 8.068,30.943 2.456,5.697 8.247,9.38 14.75,9.38 0.001,0 0.001,0 0.001,0 2.912,0 5.783,-0.739 8.279,-2.122 l 49.828,-27.379 c 8.047,-4.464 10.967,-14.646 6.499,-22.712 -0.108,-0.192 -0.315,-0.54 -0.449,-0.762 -0.037,-0.064 -0.082,-0.121 -0.122,-0.184 1.507,-0.063 3.014,-0.102 4.521,-0.102 25.218,0 48.898,8.35 68.484,24.146 8.876,7.159 16.523,15.666 22.728,25.096 -1.327,-0.719 -2.847,-1.127 -4.464,-1.127 -5.178,0 -9.377,4.2 -9.377,9.38 0,5.18 4.199,9.38 9.377,9.38 5.183,0 9.38,-4.2 9.38,-9.38 0,-0.008 -10e-4,-0.015 -10e-4,-0.023 2.34,4.337 4.396,8.825 6.131,13.442 -1.118,-0.089 -2.246,-0.148 -3.386,-0.148 H 414.26 c -23.179,0 -42.037,18.858 -42.037,42.039 0,23.18 18.857,42.037 42.037,42.037 h 55.699 c 0.11,0 0.216,-0.008 0.324,-0.009 -17.235,37.558 -54.482,62.529 -96.663,63.49 z m 26.163,-84.492 c -6.675,-4.612 -11.062,-12.314 -11.062,-21.025 0,-8.711 4.386,-16.413 11.062,-21.025 -3.592,6.19 -5.659,13.368 -5.659,21.025 -0.001,7.656 2.068,14.835 5.659,21.025 z m 70.18,4.517 h -33.801 c -14.085,0 -25.543,-11.459 -25.543,-25.542 0,-14.084 11.459,-25.543 25.543,-25.543 h 33.801 c 14.085,0 25.542,11.459 25.542,25.543 0,14.085 -11.458,25.542 -25.542,25.542 z"
   id="path3"
   style="fill:url(#linearGradient8);fill-opacity:1" />&#10;			<path
   d="m 150.171,176.031 c -13.334,0 -24.181,10.847 -24.181,24.18 0,13.333 10.847,24.18 24.181,24.18 13.333,0 24.179,-10.847 24.179,-24.18 0.001,-13.333 -10.845,-24.18 -24.179,-24.18 z m 0,31.864 c -4.238,0 -7.686,-3.448 -7.686,-7.685 0,-4.237 3.449,-7.685 7.686,-7.685 4.237,0 7.683,3.447 7.683,7.685 0.002,4.238 -3.446,7.685 -7.683,7.685 z"
   id="path4"
   style="fill:url(#linearGradient8);fill-opacity:1" />&#10;			<path
   d="m 97.565,205.217 c -13.334,0 -24.181,10.847 -24.181,24.18 0,13.333 10.847,24.18 24.181,24.18 13.333,0 24.179,-10.847 24.179,-24.18 0,-13.333 -10.847,-24.18 -24.179,-24.18 z m 0,31.864 c -4.238,0 -7.686,-3.448 -7.686,-7.685 0,-4.238 3.449,-7.685 7.686,-7.685 4.236,0 7.683,3.448 7.683,7.685 0,4.237 -3.447,7.685 -7.683,7.685 z"
   id="path5"
   style="fill:url(#linearGradient8);fill-opacity:1" />&#10;			<path
   d="m 385.249,172.1 c 5.183,0 9.381,-4.2 9.381,-9.38 0,-5.18 -4.199,-9.38 -9.381,-9.38 -5.178,0 -9.377,4.2 -9.377,9.38 0,5.179 4.198,9.38 9.377,9.38 z"
   id="path6"
   style="fill:url(#linearGradient8);fill-opacity:1" />&#10;		</g>&#10;	</g>&#10;</g>&#10;</svg>
